<svg width="12" height="17" viewBox="0 0 12 17" fill="none" xmlns="http://www.w3.org/2000/svg">
<path d="M5.95 3.825C6.51359 3.825 7.05409 4.04888 7.4526 4.4474C7.85112 4.84591 8.075 5.38642 8.075 5.95C8.075 6.22906 8.02004 6.50539 7.91324 6.7632C7.80645 7.02102 7.64993 7.25528 7.4526 7.4526C7.25528 7.64993 7.02102 7.80645 6.7632 7.91324C6.50539 8.02004 6.22906 8.075 5.95 8.075C5.38642 8.075 4.84591 7.85112 4.4474 7.4526C4.04888 7.05409 3.825 6.51359 3.825 5.95C3.825 5.38642 4.04888 4.84591 4.4474 4.4474C4.84591 4.04888 5.38642 3.825 5.95 3.825ZM5.95 0C7.52804 0 9.04144 0.626873 10.1573 1.74271C11.2731 2.85856 11.9 4.37196 11.9 5.95C11.9 10.4125 5.95 17 5.95 17C5.95 17 0 10.4125 0 5.95C0 4.37196 0.626873 2.85856 1.74271 1.74271C2.85856 0.626873 4.37196 0 5.95 0ZM5.95 1.7C4.82283 1.7 3.74183 2.14777 2.9448 2.9448C2.14777 3.74183 1.7 4.82283 1.7 5.95C1.7 6.8 1.7 8.5 5.95 14.2035C10.2 8.5 10.2 6.8 10.2 5.95C10.2 4.82283 9.75223 3.74183 8.9552 2.9448C8.15817 2.14777 7.07717 1.7 5.95 1.7Z" fill="#E85B2A"/>
</svg>
