<svg width="42" height="60" viewBox="0 0 42 60" fill="none" xmlns="http://www.w3.org/2000/svg">
<path d="M5.08109 34.995L5.08026 34.9936C2.4408 30.7299 1 26.0206 1 21C1 9.94229 9.94229 1 21 1C32.0577 1 41 9.94229 41 21C41 26.0203 39.5594 30.7279 36.8923 34.9895L36.8923 34.9895L36.8874 34.9974C35.4945 37.2701 33.8767 39.3822 32.2193 41.5319C32.1704 41.5953 32.1215 41.6587 32.0726 41.7222C30.4722 43.7976 28.8397 45.9146 27.4129 48.1885L27.4126 48.189C25.965 50.4991 24.952 52.651 23.8404 55.0845L23.8396 55.0862C23.7 55.3935 23.5586 55.7531 23.4228 56.0984C23.3652 56.2448 23.3087 56.3886 23.2537 56.5248C23.0567 57.0126 22.8566 57.4656 22.6235 57.8568C22.1612 58.6326 21.6798 59 21 59C20.3201 59 19.8382 58.6326 19.3712 57.8543C19.1357 57.4617 18.9328 57.0079 18.7309 56.5181C18.6804 56.3956 18.6287 56.2674 18.5761 56.1369C18.4321 55.7802 18.2812 55.4063 18.1292 55.0835C17.0424 52.6387 16.0015 50.4935 14.558 48.19C13.1071 45.8627 11.4441 43.7057 9.81739 41.5959L9.7507 41.5094C8.09235 39.3584 6.4744 37.2536 5.08109 34.995Z" fill="#F9DB41" stroke="white" stroke-width="2"/>
<path d="M14.7389 29.924C14.2323 30.188 13.6574 29.7253 13.7598 29.1347L14.8491 22.8282L10.2253 18.3537C9.79349 17.9351 10.0179 17.1698 10.5967 17.0871L17.0252 16.1591L19.8917 10.39C20.1502 9.87 20.8498 9.87 21.1083 10.39L23.9748 16.1591L30.4033 17.0871C30.9821 17.1698 31.2065 17.9351 30.7747 18.3537L26.1509 22.8282L27.2402 29.1347C27.3426 29.7253 26.7677 30.188 26.2611 29.924L20.498 26.9161L14.7389 29.924Z" fill="white"/>
</svg>
