<svg width="44" height="60" viewBox="0 0 44 60" fill="none" xmlns="http://www.w3.org/2000/svg">
<path d="M6.02204 35.0006L6.02123 34.9993C3.42048 30.7351 2 26.0238 2 21C2 9.9282 10.8175 1 21.6897 1C32.5618 1 41.3793 9.9282 41.3793 21C41.3793 26.0235 39.959 30.7332 37.3311 34.9952L37.331 34.9951L37.3262 35.0031C35.9538 37.2758 34.36 39.3879 32.7271 41.5376L32.5826 41.7279C31.0058 43.8033 29.3974 45.9203 27.9918 48.1942L27.9915 48.1947C26.5653 50.5045 25.5675 52.6562 24.4723 55.0896L24.4716 55.0913C24.334 55.3984 24.1948 55.7577 24.0611 56.1029C24.0044 56.2494 23.9486 56.3933 23.8944 56.5296C23.7003 57.0176 23.503 57.4709 23.2731 57.8624C22.8155 58.6419 22.3445 59 21.6897 59C21.0347 59 20.5632 58.6418 20.101 57.8599C19.8688 57.4671 19.6687 57.0128 19.4698 56.5229C19.4199 56.4003 19.369 56.272 19.3171 56.1415C19.1753 55.7848 19.0267 55.4112 18.8771 55.0887C17.8063 52.6439 16.7808 50.4989 15.3587 48.1953C13.9293 45.8682 12.2909 43.7113 10.6883 41.6015L10.6227 41.5151C8.98886 39.3642 7.39481 37.2593 6.02204 35.0006Z" fill="#E6693D" stroke="white" stroke-width="2"/>
<path d="M24.9125 18.9748C24.125 18.9748 21.5 12.5711 21.5 12.5711C21.5 12.5711 18.875 18.9748 18.0875 18.9748C17.3 18.9748 13.1 15.3155 13.1 15.3155C15.6251 19.9769 16.5024 22.36 16.25 25.8359H26.75C26.4976 22.36 27.3749 19.9769 29.9 15.3155C29.9 15.3155 25.7 18.9748 24.9125 18.9748Z" fill="white"/>
<path fill-rule="evenodd" clip-rule="evenodd" d="M22.4763 12.1977L21.5 9.81614L20.5237 12.1977L20.5168 12.2146L20.4954 12.2664C20.4764 12.3122 20.4484 12.3798 20.4123 12.466C20.34 12.6386 20.2357 12.8856 20.108 13.1824C19.8522 13.7767 19.5043 14.566 19.1335 15.3527C18.7599 16.1451 18.3742 16.911 18.0423 17.4693C17.9771 17.5789 17.9171 17.6754 17.8625 17.7589C17.7774 17.7054 17.6832 17.6437 17.5804 17.5738C17.1085 17.2529 16.5337 16.8146 15.9665 16.3628C15.4027 15.9137 14.8613 15.4631 14.4599 15.1239C14.2594 14.9546 14.0946 14.8136 13.9801 14.7152C13.9229 14.666 13.8783 14.6275 13.8482 14.6015L13.8142 14.572L13.8038 14.5629L12.1696 15.7856C14.672 20.4051 15.4339 22.5793 15.2026 25.7649L15.1238 26.85H27.8762L27.7974 25.7649C27.5661 22.5793 28.328 20.4051 30.8304 15.7856L29.1968 14.5626L29.1858 14.572L29.1518 14.6015C29.1217 14.6275 29.0771 14.666 29.0199 14.7152C28.9054 14.8136 28.7406 14.9546 28.5401 15.1239C28.1387 15.4631 27.5972 15.9137 27.0335 16.3628C26.4663 16.8146 25.8915 17.2529 25.4196 17.5738C25.3167 17.6437 25.2226 17.7054 25.1375 17.7589C25.0829 17.6754 25.0229 17.5789 24.9577 17.4693C24.6258 16.911 24.2401 16.1451 23.8665 15.3527C23.4957 14.566 23.1478 13.7767 22.892 13.1824C22.7643 12.8856 22.66 12.6386 22.5877 12.466C22.5516 12.3798 22.5236 12.3122 22.5046 12.2664L22.4832 12.2146L22.4763 12.1977ZM24.7297 17.9841C24.7212 17.9871 24.7223 17.9862 24.7316 17.9834C24.7309 17.9836 24.7303 17.9839 24.7297 17.9841ZM26.8961 19.0462C26.805 19.1108 26.7156 19.173 26.6285 19.2322C26.3618 19.4136 26.096 19.5814 25.8551 19.7081C25.7349 19.7714 25.6026 19.8341 25.4669 19.8833C25.3467 19.9268 25.1464 19.9889 24.9125 19.9889C24.5143 19.9889 24.2279 19.7995 24.1001 19.7036C23.949 19.5902 23.823 19.4559 23.7245 19.3387C23.5246 19.1008 23.3247 18.7958 23.1365 18.4791C22.7546 17.8367 22.3365 17.0017 21.9553 16.1932C21.7975 15.8583 21.6441 15.5239 21.5 15.2041C21.3559 15.5239 21.2025 15.8583 21.0447 16.1932C20.6635 17.0017 20.2454 17.8367 19.8635 18.4791C19.6753 18.7958 19.4754 19.1008 19.2755 19.3387C19.177 19.4559 19.051 19.5902 18.8999 19.7036C18.7721 19.7995 18.4857 19.9889 18.0875 19.9889C17.8536 19.9889 17.6533 19.9268 17.5331 19.8833C17.3974 19.8341 17.2651 19.7714 17.1449 19.7081C16.904 19.5814 16.6382 19.4136 16.3715 19.2322C16.2844 19.173 16.195 19.1108 16.1039 19.0462C16.9571 21.0903 17.3526 22.8225 17.3411 24.8217H25.6589C25.6474 22.8225 26.0429 21.0903 26.8961 19.0462ZM18.2703 17.9841C18.2697 17.9838 18.269 17.9836 18.2683 17.9833C18.2777 17.9862 18.2788 17.9871 18.2703 17.9841Z" fill="white"/>
<path d="M23.6 11.0407C23.6 12.1678 22.6598 13.0815 21.5 13.0815C20.3402 13.0815 19.4 12.1678 19.4 11.0407C19.4 9.91367 20.3402 9 21.5 9C22.6598 9 23.6 9.91367 23.6 11.0407Z" fill="white"/>
<path fill-rule="evenodd" clip-rule="evenodd" d="M21.5 13.0815C22.6598 13.0815 23.6 12.1678 23.6 11.0407C23.6 9.91367 22.6598 9 21.5 9C20.3402 9 19.4 9.91367 19.4 11.0407C19.4 12.1678 20.3402 13.0815 21.5 13.0815Z" fill="white"/>
<path d="M15.2 15.1221C15.2 16.2491 14.2598 17.1628 13.1 17.1628C11.9402 17.1628 11 16.2491 11 15.1221C11 13.995 11.9402 13.0813 13.1 13.0813C14.2598 13.0813 15.2 13.995 15.2 15.1221Z" fill="white"/>
<path fill-rule="evenodd" clip-rule="evenodd" d="M13.1 17.1628C14.2598 17.1628 15.2 16.2491 15.2 15.1221C15.2 13.995 14.2598 13.0813 13.1 13.0813C11.9402 13.0813 11 13.995 11 15.1221C11 16.2491 11.9402 17.1628 13.1 17.1628Z" fill="white"/>
<path d="M32 15.1221C32 16.2491 31.0598 17.1628 29.9 17.1628C28.7402 17.1628 27.8 16.2491 27.8 15.1221C27.8 13.995 28.7402 13.0813 29.9 13.0813C31.0598 13.0813 32 13.995 32 15.1221Z" fill="white"/>
<path fill-rule="evenodd" clip-rule="evenodd" d="M29.9 17.1628C31.0598 17.1628 32 16.2491 32 15.1221C32 13.995 31.0598 13.0813 29.9 13.0813C28.7402 13.0813 27.8 13.995 27.8 15.1221C27.8 16.2491 28.7402 17.1628 29.9 17.1628Z" fill="white"/>
<path d="M2 33.19V34.618H14.292V33.19H2ZM7.194 32V33.904H8.93V32H7.194ZM2.56 38.846V45.188H4.198V40.232H12.794V38.846H2.56ZM12.164 38.846V43.368C12.164 43.536 12.108 43.592 11.898 43.592C11.702 43.606 10.988 43.606 10.358 43.578C10.582 44.012 10.82 44.684 10.876 45.16C11.884 45.16 12.626 45.132 13.158 44.88C13.704 44.628 13.858 44.18 13.858 43.41V38.846H12.164ZM5.458 40.876V44.656H6.914V40.876H5.458ZM6.186 40.876V41.996H9.35V42.892H6.186V44.012H10.834V40.876H6.186ZM5.892 36.284H10.302V37.124H5.892V36.284ZM4.296 35.164V38.258H11.996V35.164H4.296Z" fill="white"/>
<path d="M26.248 34.744C26.108 35.766 25.786 37.18 25.478 38.076L26.766 38.398C27.116 37.558 27.494 36.242 27.844 35.066L26.248 34.744ZM20.914 35.15C21.194 36.186 21.446 37.544 21.474 38.426L22.902 38.104C22.832 37.222 22.566 35.892 22.258 34.856L20.914 35.15ZM20.774 32.728V34.282H27.914V32.728H20.774ZM20.298 38.79V40.386H28.166V38.79H20.298ZM23.392 33.274V45.16H25.044V33.274H23.392ZM15.692 36.326V37.586H20.018V36.326H15.692ZM15.734 32.462V33.736H19.99V32.462H15.734ZM15.692 38.23V39.504H20.018V38.23H15.692ZM15.006 34.352V35.682H20.522V34.352H15.006ZM16.462 40.176V41.506H18.562V43.102H16.462V44.432H20.004V40.176H16.462ZM15.65 40.176V44.992H17.064V40.176H15.65Z" fill="white"/>
<path d="M32.464 33.4V34.912H41.41V33.4H32.464ZM32.604 36.662V44.88H34.144V38.118H39.716V44.796H41.326V36.662H32.604ZM34.872 33.596V37.74H36.44V33.596H34.872ZM37.364 33.582V37.726H38.96V33.582H37.364ZM33.304 42.626V44.068H40.906V42.626H33.304ZM35.026 37.726V43.746H36.44V37.726H35.026ZM37.364 37.726V43.732H38.778V37.726H37.364ZM31.246 32.056C30.56 34.002 29.412 35.934 28.194 37.166C28.474 37.572 28.922 38.454 29.062 38.846C30.518 37.292 31.904 34.842 32.758 32.546L31.246 32.056ZM29.916 35.962V45.174H31.484V34.408V34.394L29.916 35.962Z" fill="white"/>
<path fill-rule="evenodd" clip-rule="evenodd" d="M0 33.19C0 32.0854 0.895431 31.19 2 31.19H5.36482C5.6757 30.489 6.37775 30 7.194 30H8.93C9.74625 30 10.4483 30.489 10.7592 31.19H14.1905C14.5574 30.7454 15.1126 30.462 15.734 30.462H19.99C20.3532 30.462 20.6937 30.5588 20.9873 30.728H27.914C28.4887 30.728 29.0068 30.9704 29.3716 31.3585C29.7441 30.3565 30.8417 29.8226 31.8626 30.1534L33.3746 30.6434C33.7914 30.7785 34.1493 31.0456 34.3971 31.4H41.41C42.5146 31.4 43.41 32.2954 43.41 33.4V34.912C43.41 35.2603 43.321 35.5879 43.1644 35.8731C43.2684 36.1151 43.326 36.3818 43.326 36.662V44.796C43.326 45.9006 42.4306 46.796 41.326 46.796H39.716C39.0946 46.796 38.5394 46.5126 38.1726 46.068H35.7531C35.3888 46.5606 34.8037 46.88 34.144 46.88H32.604C32.5794 46.88 32.5549 46.8796 32.5305 46.8787C32.2261 47.066 31.8677 47.174 31.484 47.174H29.916C28.8114 47.174 27.916 46.2786 27.916 45.174V42.386H27.044V45.16C27.044 46.2646 26.1486 47.16 25.044 47.16H23.392C22.5013 47.16 21.7466 46.5778 21.4877 45.7731C21.1218 46.1778 20.5926 46.432 20.004 46.432H18.452C18.0923 46.7787 17.603 46.992 17.064 46.992H15.65C15.152 46.992 14.6966 46.81 14.3465 46.5089C14.2368 46.5761 14.1228 46.637 14.0052 46.6917C13.0086 47.1604 11.8069 47.1602 10.9228 47.16C10.9071 47.16 10.8915 47.16 10.876 47.16C10.083 47.16 9.38819 46.6959 9.06618 46.012H8.38414C8.01871 46.408 7.49532 46.656 6.914 46.656H5.55631C5.19963 46.9862 4.72238 47.188 4.198 47.188H2.56C1.45543 47.188 0.56 46.2926 0.56 45.188V38.846C0.56 37.8309 1.31621 36.9925 2.296 36.8633V36.618H2C0.895431 36.618 0 35.7226 0 34.618V33.19ZM2.56 38.846V45.188H4.198V40.232H12.164V43.368C12.164 43.3829 12.1636 43.3969 12.1626 43.41C12.1529 43.5455 12.0894 43.592 11.898 43.592C11.8867 43.5928 11.8736 43.5936 11.859 43.5943C11.8566 43.5944 11.8542 43.5945 11.8517 43.5946C11.7272 43.6003 11.4957 43.6027 11.221 43.6002C11.1115 43.5992 10.9952 43.5975 10.876 43.5949C10.862 43.5946 10.848 43.5942 10.834 43.5939V40.876H5.458V44.656H6.914V44.012H10.5544C10.6019 44.1303 10.6472 44.2539 10.6883 44.3783C10.7479 44.5584 10.7986 44.74 10.834 44.9089C10.8524 44.9967 10.8667 45.081 10.876 45.16C11.2529 45.16 11.5926 45.1561 11.898 45.138C11.9351 45.1358 11.9718 45.1334 12.0079 45.1308C12.1961 45.1171 12.3708 45.0971 12.5325 45.0685C12.7674 45.0268 12.9751 44.9666 13.158 44.88C13.383 44.7761 13.5415 44.639 13.65 44.4597C13.8048 44.204 13.858 43.8626 13.858 43.41V38.846H2.56ZM11.996 38.258V35.164H4.296V38.258H11.996ZM10.302 37.124V36.284H5.892V37.124H10.302ZM14.292 34.618V33.19H8.93V32H7.194V33.19H2V34.618H14.292ZM15.734 32.462V33.736H19.99V32.462H15.734ZM20.774 32.728V34.282H23.392V38.79H20.298V40.386H23.392V45.16H25.044V40.386H28.166V38.79H25.044V34.282H27.914V32.728H20.774ZM25.478 38.076C25.4988 38.0154 25.5197 37.9525 25.5406 37.8874C25.6451 37.5621 25.7497 37.1846 25.8468 36.79C25.8536 36.7626 25.8603 36.735 25.867 36.7074C25.901 36.5669 25.934 36.4246 25.9656 36.282C25.9758 36.236 25.9859 36.1899 25.9958 36.1439C26.1017 35.6532 26.1903 35.1653 26.248 34.744L27.844 35.066C27.8067 35.1914 27.7691 35.3184 27.7312 35.4462C27.649 35.7233 27.5657 36.0045 27.4819 36.282C27.4679 36.3283 27.4539 36.3744 27.4399 36.4205C27.4021 36.5449 27.3642 36.6683 27.3262 36.79C27.3054 36.857 27.2845 36.9234 27.2637 36.9892C27.1902 37.221 27.1168 37.445 27.044 37.6562C26.9956 37.7965 26.9474 37.9312 26.8997 38.0586C26.8564 38.174 26.8135 38.2835 26.771 38.386C26.7693 38.39 26.7677 38.394 26.766 38.398L25.478 38.076ZM28.5174 36.8208C28.4103 36.9411 28.3024 37.0563 28.194 37.166C28.3979 37.4617 28.691 38.01 28.8893 38.4375C28.9509 38.5704 29.0034 38.6917 29.0412 38.79C29.0487 38.8096 29.0557 38.8283 29.062 38.846C29.0794 38.8275 29.0967 38.8088 29.1141 38.79C29.2268 38.6679 29.339 38.5405 29.4506 38.4083C29.4618 38.3951 29.4729 38.3819 29.484 38.3686C29.6293 38.195 29.7735 38.0132 29.916 37.8244V45.174H31.484V35.3515C31.5623 35.2061 31.6392 35.0595 31.7145 34.912C31.7239 34.8935 31.7334 34.875 31.7428 34.8564C31.7656 34.8113 31.7884 34.7662 31.8109 34.7209C31.8628 34.617 31.9139 34.5126 31.9642 34.408C31.9664 34.4033 31.9687 34.3987 31.9709 34.394C31.9708 34.3942 31.971 34.3938 31.9709 34.394C32.1289 34.0644 32.2789 33.7317 32.4189 33.4C32.434 33.3641 32.4491 33.3281 32.464 33.2922C32.5168 33.1653 32.5681 33.0385 32.6179 32.912C32.6349 32.8687 32.6518 32.8255 32.6684 32.7823C32.694 32.7161 32.7191 32.65 32.7438 32.584C32.7486 32.5713 32.7533 32.5587 32.758 32.546L31.246 32.056C31.2021 32.1806 31.1562 32.3052 31.1086 32.4295C30.9837 32.7557 30.8464 33.0803 30.6986 33.4C30.6767 33.4475 30.6545 33.4949 30.6321 33.5421C30.5774 33.6576 30.5213 33.7723 30.464 33.8862C30.3777 34.0576 30.2886 34.227 30.1969 34.394C30.1944 34.3987 30.1918 34.4033 30.1892 34.408C30.0774 34.6112 29.9619 34.8107 29.8431 35.0055C29.7309 35.1895 29.6158 35.3694 29.4983 35.5443C29.4957 35.5482 29.4931 35.5521 29.4905 35.556C29.4883 35.5592 29.4862 35.5624 29.484 35.5656C29.3928 35.7009 29.3002 35.8331 29.2063 35.962C28.9826 36.2692 28.752 36.5571 28.5174 36.8208ZM32.464 33.4V34.912H34.872V36.662H32.604V44.88H34.144V44.068H39.716V44.796H41.326V36.662H38.96V34.912H41.41V33.4H32.464ZM36.44 34.912H37.364V36.662H36.44V34.912ZM34.144 42.626H35.026V38.118H34.144V42.626ZM36.44 42.626H37.364V38.118H36.44V42.626ZM38.778 42.626H39.716V38.118H38.778V42.626ZM20.018 39.504V38.23H15.692V39.504H20.018ZM15.65 40.176V44.992H17.064V44.432H20.004V40.176H15.65ZM17.064 41.506V43.102H18.562V41.506H17.064ZM20.018 37.586V36.326H15.692V37.586H20.018ZM22.902 38.104C22.8722 37.7282 22.8068 37.2711 22.7177 36.79C22.6867 36.6228 22.6529 36.4526 22.6167 36.282C22.585 36.1323 22.5514 35.9823 22.5163 35.8335C22.5044 35.7828 22.4923 35.7323 22.4801 35.682C22.4103 35.3959 22.3355 35.1167 22.258 34.856L20.914 35.15C20.9227 35.1823 20.9314 35.2149 20.9401 35.2478C20.9588 35.319 20.9774 35.3915 20.9958 35.4651C21.0136 35.5364 21.0312 35.6088 21.0486 35.682C21.095 35.8776 21.1395 36.079 21.1812 36.282C21.1842 36.2967 21.1872 36.3113 21.1901 36.326C21.1975 36.3623 21.2048 36.3986 21.2119 36.4349C21.2266 36.5093 21.2409 36.5837 21.2546 36.658C21.2628 36.7021 21.2708 36.7461 21.2786 36.79C21.2866 36.8346 21.2944 36.8791 21.302 36.9235C21.3346 37.1145 21.3637 37.303 21.3883 37.4852C21.3895 37.4945 21.3908 37.5038 21.392 37.5131C21.3952 37.5375 21.3984 37.5618 21.4015 37.586C21.43 37.8097 21.4514 38.0227 21.4639 38.2181C21.4641 38.2221 21.4644 38.2261 21.4646 38.23C21.468 38.2834 21.4706 38.3354 21.4726 38.386C21.4731 38.3994 21.4736 38.4128 21.474 38.426L22.902 38.104ZM20.522 34.352H15.006V35.682H20.522V34.352ZM9.35 42.892V41.996H6.914V42.892H9.35Z" fill="#E6693D"/>
</svg>
