<svg width="49" height="60" viewBox="0 0 49 60" fill="none" xmlns="http://www.w3.org/2000/svg">
<path d="M9.02204 35.0006L9.02123 34.9993C6.42048 30.7351 5 26.0238 5 21C5 9.9282 13.8175 1 24.6897 1C35.5618 1 44.3793 9.9282 44.3793 21C44.3793 26.0235 42.959 30.7331 40.3311 34.9952L40.331 34.9951L40.3262 35.0031C38.9538 37.2758 37.36 39.3879 35.7271 41.5376C35.6789 41.601 35.6307 41.6645 35.5825 41.7279C34.0057 43.8034 32.3974 45.9203 30.9918 48.1942L30.9915 48.1947C29.5653 50.5045 28.5675 52.6562 27.4723 55.0896L27.4716 55.0913C27.334 55.3984 27.1949 55.7577 27.0611 56.1029C27.0044 56.2493 26.9486 56.3933 26.8944 56.5296C26.7003 57.0176 26.503 57.4709 26.2731 57.8624C25.8155 58.6419 25.3445 59 24.6897 59C24.0347 59 23.5632 58.6418 23.101 57.8599C22.8688 57.4671 22.6687 57.0128 22.4698 56.5229C22.42 56.4003 22.369 56.272 22.3171 56.1416C22.1753 55.7848 22.0268 55.4113 21.8771 55.0887C20.8064 52.6441 19.7811 50.4993 18.3591 48.196C16.9297 45.8687 15.2911 43.7115 13.6883 41.6016L13.6227 41.5151C11.9889 39.3642 10.3948 37.2594 9.02204 35.0006Z" fill="#FF9042" stroke="white" stroke-width="2"/>
<path d="M28.4253 17.9884C27.5632 17.9884 24.6897 10.6383 24.6897 10.6383C24.6897 10.6383 21.8161 17.9884 20.954 17.9884C20.092 17.9884 15.4943 13.7884 15.4943 13.7884C18.2584 19.1387 19.2188 21.874 18.9425 25.8635H30.4368C30.1605 21.874 31.1209 19.1387 33.8851 13.7884C33.8851 13.7884 29.2874 17.9884 28.4253 17.9884Z" fill="white"/>
<path fill-rule="evenodd" clip-rule="evenodd" d="M25.7584 10.2098L24.6897 7.4762L23.621 10.2098L23.6134 10.2291L23.5899 10.2886C23.5692 10.3412 23.5384 10.4187 23.4989 10.5177C23.4198 10.7157 23.3056 10.9993 23.1658 11.3399C22.8858 12.0221 22.505 12.9281 22.099 13.831C21.6901 14.7405 21.2678 15.6196 20.9046 16.2604C20.8332 16.3863 20.7675 16.497 20.7077 16.5929C20.6146 16.5315 20.5115 16.4606 20.3989 16.3803C19.8824 16.012 19.2531 15.509 18.6322 14.9904C18.015 14.4749 17.4224 13.9578 16.9829 13.5685C16.7635 13.3741 16.583 13.2123 16.4577 13.0993C16.3951 13.0429 16.3463 12.9987 16.3133 12.9688L16.2761 12.9349L16.2647 12.9245L14.4758 14.3279C17.2151 19.6301 18.0491 22.1257 17.7959 25.7821L17.7097 27.0275H31.6696L31.5834 25.7821C31.3302 22.1257 32.1642 19.6301 34.9035 14.3279L33.1153 12.9241L33.1032 12.9349L33.066 12.9688C33.033 12.9987 32.9842 13.0429 32.9216 13.0993C32.7963 13.2123 32.6158 13.3741 32.3964 13.5685C31.9569 13.9578 31.3643 14.4749 30.7471 14.9904C30.1262 15.509 29.497 16.012 28.9804 16.3803C28.8678 16.4606 28.7647 16.5315 28.6716 16.5929C28.6118 16.497 28.5461 16.3863 28.4747 16.2604C28.1115 15.6196 27.6892 14.7405 27.2803 13.831C26.8743 12.9281 26.4935 12.0221 26.2135 11.3399C26.0737 10.9993 25.9595 10.7157 25.8804 10.5177C25.8409 10.4187 25.8101 10.3412 25.7894 10.2886L25.7659 10.2291L25.7584 10.2098ZM28.2252 16.8513C28.2159 16.8548 28.217 16.8537 28.2273 16.8505C28.2265 16.8508 28.2258 16.851 28.2252 16.8513ZM30.5967 18.0704C30.497 18.1445 30.3991 18.2159 30.3038 18.2839C30.0118 18.4921 29.7208 18.6847 29.4572 18.8302C29.3255 18.9028 29.1808 18.9748 29.0321 19.0312C28.9006 19.0811 28.6814 19.1524 28.4253 19.1524C27.9894 19.1524 27.6759 18.9351 27.5359 18.8249C27.3705 18.6947 27.2326 18.5407 27.1248 18.4061C26.9059 18.1331 26.6871 17.783 26.4811 17.4195C26.0631 16.6821 25.6053 15.7237 25.1881 14.7957C25.0153 14.4114 24.8474 14.0275 24.6897 13.6604C24.5319 14.0275 24.364 14.4114 24.1912 14.7957C23.774 15.7237 23.3162 16.6821 22.8982 17.4195C22.6922 17.783 22.4734 18.1331 22.2545 18.4061C22.1467 18.5407 22.0088 18.6947 21.8434 18.8249C21.7034 18.9351 21.3899 19.1524 20.954 19.1524C20.698 19.1524 20.4787 19.0811 20.3472 19.0312C20.1986 18.9748 20.0538 18.9028 19.9221 18.8302C19.6585 18.6847 19.3675 18.4921 19.0755 18.2839C18.9802 18.2159 18.8823 18.1445 18.7826 18.0704C19.7166 20.4166 20.1495 22.4048 20.137 24.6995H29.2423C29.2298 22.4048 29.6627 20.4166 30.5967 18.0704ZM21.1541 16.8513C21.1535 16.851 21.1527 16.8507 21.152 16.8504C21.1623 16.8537 21.1634 16.8548 21.1541 16.8513Z" fill="white"/>
<path d="M26.9885 8.88177C26.9885 10.1754 25.9593 11.2241 24.6897 11.2241C23.42 11.2241 22.3908 10.1754 22.3908 8.88177C22.3908 7.58813 23.42 6.53943 24.6897 6.53943C25.9593 6.53943 26.9885 7.58813 26.9885 8.88177Z" fill="white"/>
<path fill-rule="evenodd" clip-rule="evenodd" d="M24.6897 11.2241C25.9593 11.2241 26.9885 10.1754 26.9885 8.88177C26.9885 7.58813 25.9593 6.53943 24.6897 6.53943C23.42 6.53943 22.3908 7.58813 22.3908 8.88177C22.3908 10.1754 23.42 11.2241 24.6897 11.2241Z" fill="white"/>
<path d="M17.7931 13.5663C17.7931 14.86 16.7639 15.9087 15.4943 15.9087C14.2246 15.9087 13.1954 14.86 13.1954 13.5663C13.1954 12.2727 14.2246 11.224 15.4943 11.224C16.7639 11.224 17.7931 12.2727 17.7931 13.5663Z" fill="white"/>
<path fill-rule="evenodd" clip-rule="evenodd" d="M15.4943 15.9087C16.7639 15.9087 17.7931 14.86 17.7931 13.5663C17.7931 12.2727 16.7639 11.224 15.4943 11.224C14.2246 11.224 13.1954 12.2727 13.1954 13.5663C13.1954 14.86 14.2246 15.9087 15.4943 15.9087Z" fill="white"/>
<path d="M36.1839 13.5663C36.1839 14.86 35.1547 15.9087 33.8851 15.9087C32.6154 15.9087 31.5862 14.86 31.5862 13.5663C31.5862 12.2727 32.6154 11.224 33.8851 11.224C35.1547 11.224 36.1839 12.2727 36.1839 13.5663Z" fill="white"/>
<path fill-rule="evenodd" clip-rule="evenodd" d="M33.8851 15.9087C35.1547 15.9087 36.1839 14.86 36.1839 13.5663C36.1839 12.2727 35.1547 11.224 33.8851 11.224C32.6154 11.224 31.5862 12.2727 31.5862 13.5663C31.5862 14.86 32.6154 15.9087 33.8851 15.9087Z" fill="white"/>
<mask id="path-10-outside-1_6_166" maskUnits="userSpaceOnUse" x="0.636" y="27.92" width="48" height="27" fill="black">
<rect fill="white" x="0.636" y="27.92" width="48" height="27"/>
<path d="M11.98 31.56L10.504 30.648C10.192 30.744 9.712 30.804 9.316 30.804C8.932 30.804 6.676 30.804 6.112 30.804L5.464 32.448H9.28C9.124 33.228 8.452 34.608 7.696 35.448C6.676 36.588 5.428 37.608 2.836 38.4L4.564 39.936C6.82 39.012 8.272 37.908 9.436 36.48C10.54 35.124 11.188 33.54 11.512 32.544C11.632 32.184 11.824 31.824 11.98 31.56ZM8.128 29.616L6.004 28.92C5.872 29.388 5.584 30.012 5.368 30.348C4.732 31.356 3.76 32.796 1.636 34.104L3.268 35.316C4.876 34.2 6.412 32.52 7.276 30.996C7.432 30.72 7.792 30.096 8.128 29.616Z"/>
<path d="M14.74 30.228L15.196 31.896C16.228 31.872 18.064 31.812 19.444 31.62C20.344 31.488 21.208 31.356 21.976 31.152C22.192 31.104 22.552 31.008 23.044 30.888L21.856 29.292C21.244 29.592 20.14 29.844 18.868 30.036C17.536 30.24 15.664 30.24 14.74 30.228ZM15.172 38.556L17.032 39.804C19.396 38.352 20.164 36.132 20.164 33.792C20.164 33.792 20.164 32.364 20.164 31.284L18.244 31.488C18.244 33.216 18.244 33.828 18.244 33.828C18.244 35.952 17.332 37.572 15.172 38.556ZM13.864 33.108V34.968C14.188 34.944 14.656 34.92 15.016 34.92C15.712 34.92 22.288 34.92 23.068 34.92C23.416 34.92 23.836 34.944 24.196 34.968V33.108C23.92 33.132 23.284 33.18 23.032 33.18C22.192 33.18 15.748 33.18 15.004 33.18C14.62 33.18 14.224 33.144 13.864 33.108Z"/>
<path d="M26.776 30.312V32.328C27.148 32.304 27.82 32.28 28.36 32.28H33.556V38.028C33.556 38.484 33.544 38.904 33.532 39.36H35.644C35.608 38.892 35.584 38.208 35.584 37.8V31.572C35.584 31.176 35.608 30.648 35.62 30.36C35.44 30.372 34.864 30.396 34.48 30.396H28.36C27.928 30.396 27.256 30.36 26.776 30.312ZM26.632 36.768V38.844C27.064 38.796 27.82 38.76 28.276 38.76H34.732V36.84H28.216C27.652 36.84 27.1 36.804 26.632 36.768Z"/>
<path d="M40.396 29.424L39.724 31.152C41.44 31.368 44.98 32.172 46.348 32.676L47.092 30.864C45.58 30.336 41.992 29.616 40.396 29.424ZM39.856 32.688L39.184 34.452C41.02 34.752 44.176 35.472 45.544 35.988L46.252 34.164C44.74 33.66 41.608 32.976 39.856 32.688ZM39.256 36.096L38.524 37.932C40.444 38.22 44.368 39.06 46 39.708L46.804 37.884C45.148 37.296 41.344 36.408 39.256 36.096Z"/>
<path d="M7.696 42.652V44.128H18.292V42.652H7.696ZM12.016 41.716V43.396H13.816V41.716H12.016ZM8.14 47.584V53.152H9.844V49.012H16.84V47.584H8.14ZM16.204 47.584V51.34C16.204 51.472 16.144 51.508 15.988 51.508C15.832 51.52 15.268 51.52 14.86 51.496C15.088 51.928 15.328 52.636 15.388 53.128C16.18 53.128 16.804 53.104 17.308 52.84C17.812 52.588 17.956 52.132 17.956 51.376V47.584H16.204ZM10.672 49.432V52.732H12.172V49.432H10.672ZM11.416 49.432V50.572H13.768V51.076H11.416V52.216H15.292V49.432H11.416ZM11.308 45.604H14.56V46.084H11.308V45.604ZM9.652 44.476V47.224H16.324V44.476H9.652Z"/>
<path d="M28.876 44.2C28.78 45.052 28.54 46.204 28.3 46.96L29.632 47.284C29.908 46.588 30.22 45.532 30.52 44.524L28.876 44.2ZM24.34 44.596C24.544 45.448 24.724 46.576 24.736 47.308L26.2 46.984C26.152 46.252 25.96 45.16 25.72 44.308L24.34 44.596ZM24.316 42.292V43.912H30.484V42.292H24.316ZM23.932 47.512V49.156H30.688V47.512H23.932ZM26.416 42.868V53.128H28.132V42.868H26.416ZM19.888 45.448V46.744H23.68V45.448H19.888ZM19.924 42.088V43.384H23.656V42.088H19.924ZM19.888 47.104V48.4H23.68V47.104H19.888ZM19.3 43.732V45.088H24.112V43.732H19.3ZM20.68 48.796V50.152H22.168V51.172H20.68V52.528H23.656V48.796H20.68ZM19.84 48.796V52.96H21.304V48.796H19.84Z"/>
<path d="M34.816 42.892V44.452H42.496V42.892H34.816ZM34.912 45.688V52.852H36.508V47.2H40.768V52.78H42.448V45.688H34.912ZM36.772 43.084V46.816H38.404V43.084H36.772ZM38.86 43.072V46.804H40.504V43.072H38.86ZM35.632 50.728V52.216H42.016V50.728H35.632ZM36.94 46.816V51.892H38.392V46.816H36.94ZM38.86 46.804V51.88H40.312V46.804H38.86ZM33.592 41.764C33.04 43.36 32.092 44.956 31.096 45.964C31.372 46.384 31.828 47.32 31.972 47.728C33.232 46.396 34.432 44.236 35.164 42.268L33.592 41.764ZM32.476 45.244V53.14H34.108V43.624V43.612L32.476 45.244Z"/>
</mask>
<path d="M11.98 31.56L10.504 30.648C10.192 30.744 9.712 30.804 9.316 30.804C8.932 30.804 6.676 30.804 6.112 30.804L5.464 32.448H9.28C9.124 33.228 8.452 34.608 7.696 35.448C6.676 36.588 5.428 37.608 2.836 38.4L4.564 39.936C6.82 39.012 8.272 37.908 9.436 36.48C10.54 35.124 11.188 33.54 11.512 32.544C11.632 32.184 11.824 31.824 11.98 31.56ZM8.128 29.616L6.004 28.92C5.872 29.388 5.584 30.012 5.368 30.348C4.732 31.356 3.76 32.796 1.636 34.104L3.268 35.316C4.876 34.2 6.412 32.52 7.276 30.996C7.432 30.72 7.792 30.096 8.128 29.616Z" fill="white"/>
<path d="M14.74 30.228L15.196 31.896C16.228 31.872 18.064 31.812 19.444 31.62C20.344 31.488 21.208 31.356 21.976 31.152C22.192 31.104 22.552 31.008 23.044 30.888L21.856 29.292C21.244 29.592 20.14 29.844 18.868 30.036C17.536 30.24 15.664 30.24 14.74 30.228ZM15.172 38.556L17.032 39.804C19.396 38.352 20.164 36.132 20.164 33.792C20.164 33.792 20.164 32.364 20.164 31.284L18.244 31.488C18.244 33.216 18.244 33.828 18.244 33.828C18.244 35.952 17.332 37.572 15.172 38.556ZM13.864 33.108V34.968C14.188 34.944 14.656 34.92 15.016 34.92C15.712 34.92 22.288 34.92 23.068 34.92C23.416 34.92 23.836 34.944 24.196 34.968V33.108C23.92 33.132 23.284 33.18 23.032 33.18C22.192 33.18 15.748 33.18 15.004 33.18C14.62 33.18 14.224 33.144 13.864 33.108Z" fill="white"/>
<path d="M26.776 30.312V32.328C27.148 32.304 27.82 32.28 28.36 32.28H33.556V38.028C33.556 38.484 33.544 38.904 33.532 39.36H35.644C35.608 38.892 35.584 38.208 35.584 37.8V31.572C35.584 31.176 35.608 30.648 35.62 30.36C35.44 30.372 34.864 30.396 34.48 30.396H28.36C27.928 30.396 27.256 30.36 26.776 30.312ZM26.632 36.768V38.844C27.064 38.796 27.82 38.76 28.276 38.76H34.732V36.84H28.216C27.652 36.84 27.1 36.804 26.632 36.768Z" fill="white"/>
<path d="M40.396 29.424L39.724 31.152C41.44 31.368 44.98 32.172 46.348 32.676L47.092 30.864C45.58 30.336 41.992 29.616 40.396 29.424ZM39.856 32.688L39.184 34.452C41.02 34.752 44.176 35.472 45.544 35.988L46.252 34.164C44.74 33.66 41.608 32.976 39.856 32.688ZM39.256 36.096L38.524 37.932C40.444 38.22 44.368 39.06 46 39.708L46.804 37.884C45.148 37.296 41.344 36.408 39.256 36.096Z" fill="white"/>
<path d="M7.696 42.652V44.128H18.292V42.652H7.696ZM12.016 41.716V43.396H13.816V41.716H12.016ZM8.14 47.584V53.152H9.844V49.012H16.84V47.584H8.14ZM16.204 47.584V51.34C16.204 51.472 16.144 51.508 15.988 51.508C15.832 51.52 15.268 51.52 14.86 51.496C15.088 51.928 15.328 52.636 15.388 53.128C16.18 53.128 16.804 53.104 17.308 52.84C17.812 52.588 17.956 52.132 17.956 51.376V47.584H16.204ZM10.672 49.432V52.732H12.172V49.432H10.672ZM11.416 49.432V50.572H13.768V51.076H11.416V52.216H15.292V49.432H11.416ZM11.308 45.604H14.56V46.084H11.308V45.604ZM9.652 44.476V47.224H16.324V44.476H9.652Z" fill="white"/>
<path d="M28.876 44.2C28.78 45.052 28.54 46.204 28.3 46.96L29.632 47.284C29.908 46.588 30.22 45.532 30.52 44.524L28.876 44.2ZM24.34 44.596C24.544 45.448 24.724 46.576 24.736 47.308L26.2 46.984C26.152 46.252 25.96 45.16 25.72 44.308L24.34 44.596ZM24.316 42.292V43.912H30.484V42.292H24.316ZM23.932 47.512V49.156H30.688V47.512H23.932ZM26.416 42.868V53.128H28.132V42.868H26.416ZM19.888 45.448V46.744H23.68V45.448H19.888ZM19.924 42.088V43.384H23.656V42.088H19.924ZM19.888 47.104V48.4H23.68V47.104H19.888ZM19.3 43.732V45.088H24.112V43.732H19.3ZM20.68 48.796V50.152H22.168V51.172H20.68V52.528H23.656V48.796H20.68ZM19.84 48.796V52.96H21.304V48.796H19.84Z" fill="white"/>
<path d="M34.816 42.892V44.452H42.496V42.892H34.816ZM34.912 45.688V52.852H36.508V47.2H40.768V52.78H42.448V45.688H34.912ZM36.772 43.084V46.816H38.404V43.084H36.772ZM38.86 43.072V46.804H40.504V43.072H38.86ZM35.632 50.728V52.216H42.016V50.728H35.632ZM36.94 46.816V51.892H38.392V46.816H36.94ZM38.86 46.804V51.88H40.312V46.804H38.86ZM33.592 41.764C33.04 43.36 32.092 44.956 31.096 45.964C31.372 46.384 31.828 47.32 31.972 47.728C33.232 46.396 34.432 44.236 35.164 42.268L33.592 41.764ZM32.476 45.244V53.14H34.108V43.624V43.612L32.476 45.244Z" fill="white"/>
<path d="M11.98 31.56L10.504 30.648C10.192 30.744 9.712 30.804 9.316 30.804C8.932 30.804 6.676 30.804 6.112 30.804L5.464 32.448H9.28C9.124 33.228 8.452 34.608 7.696 35.448C6.676 36.588 5.428 37.608 2.836 38.4L4.564 39.936C6.82 39.012 8.272 37.908 9.436 36.48C10.54 35.124 11.188 33.54 11.512 32.544C11.632 32.184 11.824 31.824 11.98 31.56ZM8.128 29.616L6.004 28.92C5.872 29.388 5.584 30.012 5.368 30.348C4.732 31.356 3.76 32.796 1.636 34.104L3.268 35.316C4.876 34.2 6.412 32.52 7.276 30.996C7.432 30.72 7.792 30.096 8.128 29.616Z" stroke="#FF9042" stroke-width="2" stroke-linejoin="round" mask="url(#path-10-outside-1_6_166)"/>
<path d="M14.74 30.228L15.196 31.896C16.228 31.872 18.064 31.812 19.444 31.62C20.344 31.488 21.208 31.356 21.976 31.152C22.192 31.104 22.552 31.008 23.044 30.888L21.856 29.292C21.244 29.592 20.14 29.844 18.868 30.036C17.536 30.24 15.664 30.24 14.74 30.228ZM15.172 38.556L17.032 39.804C19.396 38.352 20.164 36.132 20.164 33.792C20.164 33.792 20.164 32.364 20.164 31.284L18.244 31.488C18.244 33.216 18.244 33.828 18.244 33.828C18.244 35.952 17.332 37.572 15.172 38.556ZM13.864 33.108V34.968C14.188 34.944 14.656 34.92 15.016 34.92C15.712 34.92 22.288 34.92 23.068 34.92C23.416 34.92 23.836 34.944 24.196 34.968V33.108C23.92 33.132 23.284 33.18 23.032 33.18C22.192 33.18 15.748 33.18 15.004 33.18C14.62 33.18 14.224 33.144 13.864 33.108Z" stroke="#FF9042" stroke-width="2" stroke-linejoin="round" mask="url(#path-10-outside-1_6_166)"/>
<path d="M26.776 30.312V32.328C27.148 32.304 27.82 32.28 28.36 32.28H33.556V38.028C33.556 38.484 33.544 38.904 33.532 39.36H35.644C35.608 38.892 35.584 38.208 35.584 37.8V31.572C35.584 31.176 35.608 30.648 35.62 30.36C35.44 30.372 34.864 30.396 34.48 30.396H28.36C27.928 30.396 27.256 30.36 26.776 30.312ZM26.632 36.768V38.844C27.064 38.796 27.82 38.76 28.276 38.76H34.732V36.84H28.216C27.652 36.84 27.1 36.804 26.632 36.768Z" stroke="#FF9042" stroke-width="2" stroke-linejoin="round" mask="url(#path-10-outside-1_6_166)"/>
<path d="M40.396 29.424L39.724 31.152C41.44 31.368 44.98 32.172 46.348 32.676L47.092 30.864C45.58 30.336 41.992 29.616 40.396 29.424ZM39.856 32.688L39.184 34.452C41.02 34.752 44.176 35.472 45.544 35.988L46.252 34.164C44.74 33.66 41.608 32.976 39.856 32.688ZM39.256 36.096L38.524 37.932C40.444 38.22 44.368 39.06 46 39.708L46.804 37.884C45.148 37.296 41.344 36.408 39.256 36.096Z" stroke="#FF9042" stroke-width="2" stroke-linejoin="round" mask="url(#path-10-outside-1_6_166)"/>
<path d="M7.696 42.652V44.128H18.292V42.652H7.696ZM12.016 41.716V43.396H13.816V41.716H12.016ZM8.14 47.584V53.152H9.844V49.012H16.84V47.584H8.14ZM16.204 47.584V51.34C16.204 51.472 16.144 51.508 15.988 51.508C15.832 51.52 15.268 51.52 14.86 51.496C15.088 51.928 15.328 52.636 15.388 53.128C16.18 53.128 16.804 53.104 17.308 52.84C17.812 52.588 17.956 52.132 17.956 51.376V47.584H16.204ZM10.672 49.432V52.732H12.172V49.432H10.672ZM11.416 49.432V50.572H13.768V51.076H11.416V52.216H15.292V49.432H11.416ZM11.308 45.604H14.56V46.084H11.308V45.604ZM9.652 44.476V47.224H16.324V44.476H9.652Z" stroke="#FF9042" stroke-width="2" stroke-linejoin="round" mask="url(#path-10-outside-1_6_166)"/>
<path d="M28.876 44.2C28.78 45.052 28.54 46.204 28.3 46.96L29.632 47.284C29.908 46.588 30.22 45.532 30.52 44.524L28.876 44.2ZM24.34 44.596C24.544 45.448 24.724 46.576 24.736 47.308L26.2 46.984C26.152 46.252 25.96 45.16 25.72 44.308L24.34 44.596ZM24.316 42.292V43.912H30.484V42.292H24.316ZM23.932 47.512V49.156H30.688V47.512H23.932ZM26.416 42.868V53.128H28.132V42.868H26.416ZM19.888 45.448V46.744H23.68V45.448H19.888ZM19.924 42.088V43.384H23.656V42.088H19.924ZM19.888 47.104V48.4H23.68V47.104H19.888ZM19.3 43.732V45.088H24.112V43.732H19.3ZM20.68 48.796V50.152H22.168V51.172H20.68V52.528H23.656V48.796H20.68ZM19.84 48.796V52.96H21.304V48.796H19.84Z" stroke="#FF9042" stroke-width="2" stroke-linejoin="round" mask="url(#path-10-outside-1_6_166)"/>
<path d="M34.816 42.892V44.452H42.496V42.892H34.816ZM34.912 45.688V52.852H36.508V47.2H40.768V52.78H42.448V45.688H34.912ZM36.772 43.084V46.816H38.404V43.084H36.772ZM38.86 43.072V46.804H40.504V43.072H38.86ZM35.632 50.728V52.216H42.016V50.728H35.632ZM36.94 46.816V51.892H38.392V46.816H36.94ZM38.86 46.804V51.88H40.312V46.804H38.86ZM33.592 41.764C33.04 43.36 32.092 44.956 31.096 45.964C31.372 46.384 31.828 47.32 31.972 47.728C33.232 46.396 34.432 44.236 35.164 42.268L33.592 41.764ZM32.476 45.244V53.14H34.108V43.624V43.612L32.476 45.244Z" stroke="#FF9042" stroke-width="2" stroke-linejoin="round" mask="url(#path-10-outside-1_6_166)"/>
</svg>
