<svg width="45" height="60" viewBox="0 0 45 60" fill="none" xmlns="http://www.w3.org/2000/svg">
<path d="M6.02204 35.0006L6.02123 34.9993C3.42048 30.7351 2 26.0238 2 21C2 9.9282 10.8175 1 21.6897 1C32.5618 1 41.3793 9.9282 41.3793 21C41.3793 26.0235 39.959 30.7331 37.3311 34.9952L37.331 34.9951L37.3262 35.0031C35.9538 37.2758 34.36 39.3879 32.7271 41.5376C32.6789 41.601 32.6307 41.6645 32.5825 41.7279C31.0057 43.8034 29.3974 45.9203 27.9918 48.1942L27.9915 48.1947C26.5653 50.5045 25.5675 52.6562 24.4723 55.0896L24.4716 55.0913C24.334 55.3984 24.1949 55.7577 24.0611 56.1029C24.0044 56.2493 23.9486 56.3933 23.8944 56.5296C23.7003 57.0176 23.503 57.4709 23.2731 57.8624C22.8155 58.6419 22.3445 59 21.6897 59C21.0347 59 20.5632 58.6418 20.101 57.8599C19.8688 57.4671 19.6687 57.0128 19.4698 56.5229C19.42 56.4003 19.369 56.272 19.3171 56.1416C19.1753 55.7848 19.0268 55.4113 18.8771 55.0887C17.8064 52.6441 16.7811 50.4993 15.3591 48.196C13.9297 45.8687 12.2911 43.7115 10.6883 41.6016L10.6227 41.5151C8.98886 39.3642 7.39481 37.2594 6.02204 35.0006Z" fill="#E6693D" stroke="white" stroke-width="2"/>
<path d="M24.9125 18.9748C24.125 18.9748 21.5 12.5711 21.5 12.5711C21.5 12.5711 18.875 18.9748 18.0875 18.9748C17.3 18.9748 13.1 15.3155 13.1 15.3155C15.6251 19.9769 16.5024 22.36 16.25 25.8359H26.75C26.4976 22.36 27.3749 19.9769 29.9 15.3155C29.9 15.3155 25.7 18.9748 24.9125 18.9748Z" fill="white"/>
<path fill-rule="evenodd" clip-rule="evenodd" d="M22.4763 12.1977L21.5 9.81614L20.5237 12.1977L20.5168 12.2146L20.4954 12.2664C20.4764 12.3122 20.4484 12.3798 20.4123 12.466C20.34 12.6386 20.2357 12.8856 20.108 13.1824C19.8522 13.7767 19.5043 14.566 19.1335 15.3527C18.7599 16.1451 18.3742 16.911 18.0423 17.4693C17.9771 17.5789 17.9171 17.6754 17.8625 17.7589C17.7774 17.7054 17.6832 17.6437 17.5804 17.5738C17.1085 17.2529 16.5337 16.8146 15.9665 16.3628C15.4027 15.9137 14.8613 15.4631 14.4599 15.1239C14.2594 14.9546 14.0946 14.8136 13.9801 14.7152C13.9229 14.666 13.8783 14.6275 13.8482 14.6015L13.8142 14.572L13.8038 14.5629L12.1696 15.7856C14.672 20.4051 15.4339 22.5793 15.2026 25.7649L15.1238 26.85H27.8762L27.7974 25.7649C27.5661 22.5793 28.328 20.4051 30.8304 15.7856L29.1968 14.5626L29.1858 14.572L29.1518 14.6015C29.1217 14.6275 29.0771 14.666 29.0199 14.7152C28.9054 14.8136 28.7406 14.9546 28.5401 15.1239C28.1387 15.4631 27.5973 15.9137 27.0335 16.3628C26.4663 16.8146 25.8915 17.2529 25.4196 17.5738C25.3167 17.6437 25.2226 17.7054 25.1375 17.7589C25.0829 17.6754 25.0229 17.5789 24.9577 17.4693C24.6258 16.911 24.2401 16.1451 23.8665 15.3527C23.4957 14.566 23.1478 13.7767 22.892 13.1824C22.7643 12.8856 22.66 12.6386 22.5877 12.466C22.5516 12.3798 22.5236 12.3122 22.5046 12.2664L22.4832 12.2146L22.4763 12.1977ZM24.7297 17.9841C24.7212 17.9871 24.7223 17.9862 24.7316 17.9834C24.7309 17.9836 24.7303 17.9839 24.7297 17.9841ZM26.8961 19.0462C26.805 19.1108 26.7156 19.173 26.6285 19.2322C26.3618 19.4136 26.096 19.5814 25.8551 19.7081C25.7349 19.7714 25.6026 19.8341 25.4669 19.8833C25.3467 19.9268 25.1464 19.9889 24.9125 19.9889C24.5143 19.9889 24.2279 19.7995 24.1001 19.7036C23.949 19.5902 23.823 19.4559 23.7245 19.3387C23.5246 19.1008 23.3247 18.7958 23.1365 18.4791C22.7546 17.8367 22.3365 17.0017 21.9553 16.1932C21.7975 15.8583 21.6441 15.5239 21.5 15.2041C21.3559 15.5239 21.2025 15.8583 21.0447 16.1932C20.6635 17.0017 20.2454 17.8367 19.8635 18.4791C19.6753 18.7958 19.4754 19.1008 19.2755 19.3387C19.177 19.4559 19.051 19.5902 18.8999 19.7036C18.7721 19.7995 18.4857 19.9889 18.0875 19.9889C17.8536 19.9889 17.6533 19.9268 17.5331 19.8833C17.3974 19.8341 17.2651 19.7714 17.1449 19.7081C16.904 19.5814 16.6382 19.4136 16.3715 19.2322C16.2844 19.173 16.195 19.1108 16.1039 19.0462C16.9571 21.0903 17.3526 22.8225 17.3411 24.8217H25.6589C25.6474 22.8225 26.0429 21.0903 26.8961 19.0462ZM18.2703 17.9841C18.2697 17.9838 18.269 17.9836 18.2683 17.9833C18.2777 17.9862 18.2788 17.9871 18.2703 17.9841Z" fill="white"/>
<path d="M23.6 11.0407C23.6 12.1678 22.6598 13.0815 21.5 13.0815C20.3402 13.0815 19.4 12.1678 19.4 11.0407C19.4 9.91367 20.3402 9 21.5 9C22.6598 9 23.6 9.91367 23.6 11.0407Z" fill="white"/>
<path fill-rule="evenodd" clip-rule="evenodd" d="M21.5 13.0815C22.6598 13.0815 23.6 12.1678 23.6 11.0407C23.6 9.91367 22.6598 9 21.5 9C20.3402 9 19.4 9.91367 19.4 11.0407C19.4 12.1678 20.3402 13.0815 21.5 13.0815Z" fill="white"/>
<path d="M15.2 15.1221C15.2 16.2491 14.2598 17.1628 13.1 17.1628C11.9402 17.1628 11 16.2491 11 15.1221C11 13.995 11.9402 13.0813 13.1 13.0813C14.2598 13.0813 15.2 13.995 15.2 15.1221Z" fill="white"/>
<path fill-rule="evenodd" clip-rule="evenodd" d="M13.1 17.1628C14.2598 17.1628 15.2 16.2491 15.2 15.1221C15.2 13.995 14.2598 13.0813 13.1 13.0813C11.9402 13.0813 11 13.995 11 15.1221C11 16.2491 11.9402 17.1628 13.1 17.1628Z" fill="white"/>
<path d="M32 15.1221C32 16.2491 31.0598 17.1628 29.9 17.1628C28.7402 17.1628 27.8 16.2491 27.8 15.1221C27.8 13.995 28.7402 13.0813 29.9 13.0813C31.0598 13.0813 32 13.995 32 15.1221Z" fill="white"/>
<path fill-rule="evenodd" clip-rule="evenodd" d="M29.9 17.1628C31.0598 17.1628 32 16.2491 32 15.1221C32 13.995 31.0598 13.0813 29.9 13.0813C28.7402 13.0813 27.8 13.995 27.8 15.1221C27.8 16.2491 28.7402 17.1628 29.9 17.1628Z" fill="white"/>
<path d="M2.9 33.19V34.618H15.192V33.19H2.9ZM8.094 32V33.904H9.83V32H8.094ZM3.46 38.846V45.188H5.098V40.232H13.694V38.846H3.46ZM13.064 38.846V43.368C13.064 43.536 13.008 43.592 12.798 43.592C12.602 43.606 11.888 43.606 11.258 43.578C11.482 44.012 11.72 44.684 11.776 45.16C12.784 45.16 13.526 45.132 14.058 44.88C14.604 44.628 14.758 44.18 14.758 43.41V38.846H13.064ZM6.358 40.876V44.656H7.814V40.876H6.358ZM7.086 40.876V41.996H10.25V42.892H7.086V44.012H11.734V40.876H7.086ZM6.792 36.284H11.202V37.124H6.792V36.284ZM5.196 35.164V38.258H12.896V35.164H5.196Z" fill="white"/>
<path d="M27.148 34.744C27.008 35.766 26.686 37.18 26.378 38.076L27.666 38.398C28.016 37.558 28.394 36.242 28.744 35.066L27.148 34.744ZM21.814 35.15C22.094 36.186 22.346 37.544 22.374 38.426L23.802 38.104C23.732 37.222 23.466 35.892 23.158 34.856L21.814 35.15ZM21.674 32.728V34.282H28.814V32.728H21.674ZM21.198 38.79V40.386H29.066V38.79H21.198ZM24.292 33.274V45.16H25.944V33.274H24.292ZM16.592 36.326V37.586H20.918V36.326H16.592ZM16.634 32.462V33.736H20.89V32.462H16.634ZM16.592 38.23V39.504H20.918V38.23H16.592ZM15.906 34.352V35.682H21.422V34.352H15.906ZM17.362 40.176V41.506H19.462V43.102H17.362V44.432H20.904V40.176H17.362ZM16.55 40.176V44.992H17.964V40.176H16.55Z" fill="white"/>
<path d="M33.364 33.4V34.912H42.31V33.4H33.364ZM33.504 36.662V44.88H35.044V38.118H40.616V44.796H42.226V36.662H33.504ZM35.772 33.596V37.74H37.34V33.596H35.772ZM38.264 33.582V37.726H39.86V33.582H38.264ZM34.204 42.626V44.068H41.806V42.626H34.204ZM35.926 37.726V43.746H37.34V37.726H35.926ZM38.264 37.726V43.732H39.678V37.726H38.264ZM32.146 32.056C31.46 34.002 30.312 35.934 29.094 37.166C29.374 37.572 29.822 38.454 29.962 38.846C31.418 37.292 32.804 34.842 33.658 32.546L32.146 32.056ZM30.816 35.962V45.174H32.384V34.408V34.394L30.816 35.962Z" fill="white"/>
<path fill-rule="evenodd" clip-rule="evenodd" d="M0.9 33.19C0.9 32.0854 1.79543 31.19 2.9 31.19H6.26482C6.5757 30.489 7.27775 30 8.094 30H9.83C10.6463 30 11.3483 30.489 11.6592 31.19H15.0905C15.4574 30.7454 16.0126 30.462 16.634 30.462H20.89C21.2532 30.462 21.5937 30.5588 21.8873 30.728H28.814C29.3887 30.728 29.9068 30.9704 30.2716 31.3585C30.6441 30.3565 31.7417 29.8226 32.7626 30.1534L34.2746 30.6434C34.6914 30.7785 35.0493 31.0456 35.2971 31.4H42.31C43.4146 31.4 44.31 32.2954 44.31 33.4V34.912C44.31 35.2603 44.221 35.5879 44.0644 35.8731C44.1684 36.1151 44.226 36.3818 44.226 36.662V44.796C44.226 45.9006 43.3306 46.796 42.226 46.796H40.616C39.9946 46.796 39.4394 46.5126 39.0726 46.068H36.6531C36.2888 46.5606 35.7037 46.88 35.044 46.88H33.504C33.4794 46.88 33.4549 46.8796 33.4305 46.8787C33.1261 47.066 32.7677 47.174 32.384 47.174H30.816C29.7114 47.174 28.816 46.2786 28.816 45.174V42.386H27.944V45.16C27.944 46.2646 27.0486 47.16 25.944 47.16H24.292C23.4013 47.16 22.6466 46.5778 22.3877 45.7731C22.0218 46.1778 21.4926 46.432 20.904 46.432H19.352C18.9923 46.7787 18.503 46.992 17.964 46.992H16.55C16.052 46.992 15.5966 46.81 15.2465 46.5089C15.1368 46.5761 15.0228 46.637 14.9052 46.6917C13.9086 47.1604 12.7069 47.1602 11.8228 47.16C11.8071 47.16 11.7915 47.16 11.776 47.16C10.983 47.16 10.2882 46.6959 9.96618 46.012H9.28414C8.91871 46.408 8.39532 46.656 7.814 46.656H6.45631C6.09963 46.9862 5.62238 47.188 5.098 47.188H3.46C2.35543 47.188 1.46 46.2926 1.46 45.188V38.846C1.46 37.8309 2.21621 36.9925 3.196 36.8633V36.618H2.9C1.79543 36.618 0.9 35.7226 0.9 34.618V33.19ZM3.46 38.846V45.188H5.098V40.232H13.064V43.368C13.064 43.3829 13.0636 43.3969 13.0626 43.41C13.0529 43.5455 12.9894 43.592 12.798 43.592C12.7867 43.5928 12.7736 43.5936 12.759 43.5943C12.7566 43.5944 12.7542 43.5945 12.7517 43.5946C12.6272 43.6003 12.3957 43.6027 12.121 43.6002C12.0115 43.5992 11.8952 43.5975 11.776 43.5949C11.762 43.5946 11.748 43.5942 11.734 43.5939V40.876H6.358V44.656H7.814V44.012H11.4544C11.5019 44.1303 11.5472 44.2539 11.5883 44.3783C11.6479 44.5584 11.6986 44.74 11.734 44.9089C11.7524 44.9967 11.7667 45.081 11.776 45.16C12.1529 45.16 12.4926 45.1561 12.798 45.138C12.8351 45.1358 12.8718 45.1334 12.9079 45.1308C13.0961 45.1171 13.2708 45.0971 13.4325 45.0685C13.6674 45.0268 13.8751 44.9666 14.058 44.88C14.283 44.7761 14.4415 44.639 14.55 44.4597C14.7048 44.204 14.758 43.8626 14.758 43.41V38.846H3.46ZM12.896 38.258V35.164H5.196V38.258H12.896ZM11.202 37.124V36.284H6.792V37.124H11.202ZM15.192 34.618V33.19H9.83V32H8.094V33.19H2.9V34.618H15.192ZM16.634 32.462V33.736H20.89V32.462H16.634ZM21.674 32.728V34.282H24.292V38.79H21.198V40.386H24.292V45.16H25.944V40.386H29.066V38.79H25.944V34.282H28.814V32.728H21.674ZM26.378 38.076C26.3988 38.0154 26.4197 37.9525 26.4406 37.8874C26.5451 37.5621 26.6497 37.1846 26.7468 36.79C26.7536 36.7626 26.7603 36.735 26.767 36.7074C26.801 36.5669 26.834 36.4246 26.8656 36.282C26.8758 36.236 26.8859 36.1899 26.8958 36.1439C27.0017 35.6532 27.0903 35.1653 27.148 34.744L28.744 35.066C28.7067 35.1914 28.6691 35.3184 28.6312 35.4462C28.549 35.7233 28.4657 36.0045 28.3819 36.282C28.3679 36.3283 28.3539 36.3744 28.3399 36.4205C28.3021 36.5449 28.2642 36.6683 28.2262 36.79C28.2054 36.857 28.1845 36.9234 28.1637 36.9892C28.0902 37.221 28.0168 37.445 27.944 37.6562C27.8956 37.7965 27.8474 37.9312 27.7997 38.0586C27.7564 38.174 27.7135 38.2835 27.671 38.386C27.6693 38.39 27.6677 38.394 27.666 38.398L26.378 38.076ZM29.4174 36.8208C29.3103 36.9411 29.2024 37.0563 29.094 37.166C29.2979 37.4617 29.591 38.01 29.7893 38.4375C29.8509 38.5704 29.9034 38.6917 29.9412 38.79C29.9487 38.8096 29.9557 38.8283 29.962 38.846C29.9794 38.8275 29.9967 38.8088 30.0141 38.79C30.1268 38.6679 30.239 38.5405 30.3506 38.4083C30.3617 38.3951 30.3729 38.3819 30.384 38.3686C30.5293 38.195 30.6735 38.0132 30.816 37.8244V45.174H32.384V35.3515C32.4623 35.2061 32.5392 35.0595 32.6145 34.912C32.6239 34.8935 32.6334 34.875 32.6428 34.8564C32.6656 34.8113 32.6884 34.7662 32.7109 34.7209C32.7628 34.617 32.8139 34.5126 32.8642 34.408C32.8664 34.4033 32.8687 34.3987 32.8709 34.394C32.8708 34.3942 32.871 34.3938 32.8709 34.394C33.0289 34.0644 33.1789 33.7317 33.3189 33.4C33.334 33.3641 33.3491 33.3281 33.364 33.2922C33.4168 33.1653 33.4681 33.0385 33.5179 32.912C33.5349 32.8687 33.5518 32.8255 33.5684 32.7823C33.594 32.7161 33.6191 32.65 33.6438 32.584C33.6486 32.5713 33.6533 32.5587 33.658 32.546L32.146 32.056C32.1021 32.1806 32.0562 32.3052 32.0086 32.4295C31.8837 32.7557 31.7464 33.0803 31.5986 33.4C31.5767 33.4475 31.5545 33.4949 31.5321 33.5421C31.4774 33.6576 31.4213 33.7723 31.364 33.8862C31.2777 34.0576 31.1886 34.227 31.0969 34.394C31.0944 34.3987 31.0918 34.4033 31.0892 34.408C30.9774 34.6112 30.8619 34.8107 30.7431 35.0055C30.6309 35.1895 30.5158 35.3694 30.3983 35.5443C30.3957 35.5482 30.3931 35.5521 30.3905 35.556C30.3883 35.5592 30.3862 35.5624 30.384 35.5656C30.2928 35.7009 30.2002 35.8331 30.1063 35.962C29.8826 36.2692 29.652 36.5571 29.4174 36.8208ZM33.364 33.4V34.912H35.772V36.662H33.504V44.88H35.044V44.068H40.616V44.796H42.226V36.662H39.86V34.912H42.31V33.4H33.364ZM37.34 34.912H38.264V36.662H37.34V34.912ZM35.044 42.626H35.926V38.118H35.044V42.626ZM37.34 42.626H38.264V38.118H37.34V42.626ZM39.678 42.626H40.616V38.118H39.678V42.626ZM20.918 39.504V38.23H16.592V39.504H20.918ZM16.55 40.176V44.992H17.964V44.432H20.904V40.176H16.55ZM17.964 41.506V43.102H19.462V41.506H17.964ZM20.918 37.586V36.326H16.592V37.586H20.918ZM23.802 38.104C23.7722 37.7282 23.7068 37.2711 23.6177 36.79C23.5867 36.6228 23.5529 36.4526 23.5167 36.282C23.485 36.1323 23.4514 35.9823 23.4163 35.8335C23.4044 35.7828 23.3923 35.7323 23.3801 35.682C23.3103 35.3959 23.2355 35.1167 23.158 34.856L21.814 35.15C21.8227 35.1823 21.8314 35.2149 21.8401 35.2478C21.8588 35.319 21.8774 35.3915 21.8958 35.4651C21.9136 35.5364 21.9312 35.6088 21.9486 35.682C21.995 35.8776 22.0395 36.079 22.0812 36.282C22.0842 36.2967 22.0872 36.3113 22.0901 36.326C22.0975 36.3623 22.1048 36.3986 22.1119 36.4349C22.1266 36.5093 22.1409 36.5837 22.1546 36.658C22.1628 36.7021 22.1708 36.7461 22.1786 36.79C22.1866 36.8346 22.1944 36.8791 22.202 36.9235C22.2346 37.1145 22.2637 37.303 22.2883 37.4852C22.2895 37.4945 22.2908 37.5038 22.292 37.5131C22.2952 37.5375 22.2984 37.5618 22.3015 37.586C22.33 37.8097 22.3514 38.0227 22.3639 38.2181C22.3641 38.2221 22.3644 38.2261 22.3646 38.23C22.368 38.2834 22.3706 38.3354 22.3726 38.386C22.3731 38.3994 22.3736 38.4128 22.374 38.426L23.802 38.104ZM21.422 34.352H15.906V35.682H21.422V34.352ZM10.25 42.892V41.996H7.814V42.892H10.25Z" fill="#E6693D"/>
</svg>
