<svg width="23" height="24" viewBox="0 0 23 24" fill="none" xmlns="http://www.w3.org/2000/svg">
<g clip-path="url(#clip0_102_112)">
<path d="M22.3459 9.92709C22.48 10.699 22.5469 11.481 22.5458 12.2645C22.5458 15.7633 21.2951 18.7217 19.1188 20.7242H19.1216C17.2184 22.4822 14.6021 23.5 11.5 23.5C8.45001 23.5 5.52494 22.2884 3.36827 20.1317C1.2116 17.975 0 15.05 0 12C0 8.94998 1.2116 6.02491 3.36827 3.86824C5.52494 1.71157 8.45001 0.499965 11.5 0.499965C14.3548 0.466532 17.1118 1.53904 19.1935 3.49284L15.9103 6.77609C14.7234 5.64474 13.1395 5.0252 11.5 5.05109C8.49994 5.05109 5.95125 7.07509 5.04275 9.80059C4.56105 11.2288 4.56105 12.7755 5.04275 14.2037H5.04706C5.95988 16.9248 8.50425 18.9488 11.5043 18.9488C13.0539 18.9488 14.3851 18.5521 15.4172 17.8506H15.4129C16.0122 17.4536 16.5248 16.9392 16.9199 16.3386C17.3149 15.738 17.5842 15.0636 17.7114 14.356H11.5V9.92853L22.3459 9.92709Z" fill="#ABABAB"/>
<path d="M22.9398 9.71509H22V9.66668H11.5V14.3333H18.0935C17.1315 17.0499 14.5468 19 11.5 19C7.63429 19 4.50004 15.8658 4.50004 12C4.50004 8.13426 7.63429 5.00001 11.5 5.00001C13.2845 5.00001 14.9079 5.67318 16.144 6.77276L19.4439 3.47284C17.3602 1.53093 14.573 0.333344 11.5 0.333344C5.05712 0.333344 -0.166626 5.55709 -0.166626 12C-0.166626 18.4429 5.05712 23.6667 11.5 23.6667C17.943 23.6667 23.1667 18.4429 23.1667 12C23.1667 11.2178 23.0862 10.4542 22.9398 9.71509Z" fill="#FFC107"/>
<path d="M1.17847 6.56976L5.01155 9.38084C6.04872 6.81301 8.56055 5.00001 11.5 5.00001C13.2844 5.00001 14.9078 5.67318 16.1439 6.77276L19.4438 3.47284C17.3601 1.53093 14.573 0.333344 11.5 0.333344C7.0188 0.333344 3.13263 2.86326 1.17847 6.56976Z" fill="#FF3D00"/>
<path d="M11.5 23.6667C14.5135 23.6667 17.2517 22.5134 19.3219 20.638L15.7111 17.5825C14.5398 18.4698 13.0838 19 11.5 19C8.46552 19 5.88894 17.0651 4.91827 14.3648L1.11377 17.2961C3.0446 21.0743 6.96577 23.6667 11.5 23.6667Z" fill="#4CAF50"/>
<path d="M22.9398 9.71507H22V9.66666H11.5V14.3333H18.0934C17.6314 15.6382 16.792 16.7635 15.7093 17.5831L15.7111 17.5819L19.3219 20.6374C19.0664 20.8696 23.1667 17.8333 23.1667 12C23.1667 11.2177 23.0862 10.4542 22.9398 9.71507Z" fill="#1976D2"/>
</g>
<defs>
<clipPath id="clip0_102_112">
<rect width="23" height="23" fill="white" transform="translate(0 0.5)"/>
</clipPath>
</defs>
</svg>
