<svg width="26" height="26" viewBox="0 0 26 26" fill="none" xmlns="http://www.w3.org/2000/svg">
<path fill-rule="evenodd" clip-rule="evenodd" d="M13 5.35112L22.75 15.1011V21.9375C22.75 22.584 22.4932 23.204 22.0361 23.6611C21.579 24.1182 20.959 24.375 20.3125 24.375H5.6875C5.04103 24.375 4.42105 24.1182 3.96393 23.6611C3.50681 23.204 3.25 22.584 3.25 21.9375V15.1011L13 5.35112ZM21.125 4.0625V9.75L17.875 6.5V4.0625C17.875 3.84701 17.9606 3.64035 18.113 3.48798C18.2653 3.3356 18.472 3.25 18.6875 3.25H20.3125C20.528 3.25 20.7347 3.3356 20.887 3.48798C21.0394 3.64035 21.125 3.84701 21.125 4.0625Z" fill="white"/>
<path fill-rule="evenodd" clip-rule="evenodd" d="M11.8511 2.43745C12.1558 2.13281 12.5691 1.96167 13 1.96167C13.4309 1.96167 13.8441 2.13281 14.1489 2.43745L24.9502 13.2372C25.1028 13.3898 25.1885 13.5967 25.1885 13.8124C25.1885 14.0282 25.1028 14.2351 24.9502 14.3877C24.7977 14.5403 24.5907 14.626 24.375 14.626C24.1592 14.626 23.9523 14.5403 23.7997 14.3877L13 3.58632L2.20024 14.3877C2.04767 14.5403 1.84075 14.626 1.62499 14.626C1.40923 14.626 1.2023 14.5403 1.04974 14.3877C0.897173 14.2351 0.811462 14.0282 0.811462 13.8124C0.811462 13.5967 0.897173 13.3898 1.04974 13.2372L11.8511 2.43745Z" fill="white"/>
</svg>
