<svg width="28" height="36" viewBox="0 0 28 36" fill="none" xmlns="http://www.w3.org/2000/svg"><path d="M14 36C14 36 27.5 23.2065 27.5 13.5C27.5 9.91958 26.0777 6.4858 23.5459 3.95406C21.0142 1.42232 17.5804 0 14 0C10.4196 0 6.9858 1.42232 4.45406 3.95406C1.92232 6.4858 0.5 9.91958 0.5 13.5C0.5 23.2065 14 36 14 36ZM14 20.25C12.2098 20.25 10.4929 19.5388 9.22703 18.273C7.96116 17.0071 7.25 15.2902 7.25 13.5C7.25 11.7098 7.96116 9.9929 9.22703 8.72703C10.4929 7.46116 12.2098 6.75 14 6.75C15.7902 6.75 17.5071 7.46116 18.773 8.72703C20.0388 9.9929 20.75 11.7098 20.75 13.5C20.75 15.2902 20.0388 17.0071 18.773 18.273C17.5071 19.5388 15.7902 20.25 14 20.25Z" fill="white"/></svg>