<svg width="26" height="26" viewBox="0 0 26 26" fill="none" xmlns="http://www.w3.org/2000/svg"><path fill-rule="evenodd" clip-rule="evenodd" d="M0 1.3C0 0.58203 0.58203 0 1.3 0H12.9946C13.7126 0 14.2946 0.58203 14.2946 1.3C14.2946 2.01797 13.7126 2.6 12.9946 2.6H2.6V23.4H13C13.718 23.4 14.3 23.982 14.3 24.7C14.3 25.418 13.718 26 13 26H1.3C0.58203 26 0 25.418 0 24.7V1.3Z" fill="white"/><path fill-rule="evenodd" clip-rule="evenodd" d="M14.5692 6.23086C15.0769 6.73854 15.0769 7.56166 14.5692 8.06934L9.63847 13.0001L14.5692 17.9309C15.0769 18.4385 15.0769 19.2617 14.5692 19.7693C14.0616 20.277 13.2384 20.277 12.7308 19.7693L6.88075 13.9193C6.37307 13.4117 6.37307 12.5885 6.88075 12.0809L12.7308 6.23086C13.2384 5.72318 14.0616 5.72318 14.5692 6.23086Z" fill="white"/><path fill-rule="evenodd" clip-rule="evenodd" d="M6.49999 12.9945C6.49999 12.2765 7.08202 11.6945 7.79999 11.6945H24.7C25.418 11.6945 26 12.2765 26 12.9945C26 13.7124 25.418 14.2945 24.7 14.2945H7.79999C7.08202 14.2945 6.49999 13.7124 6.49999 12.9945Z" fill="white"/></svg>