<svg width="26" height="26" viewBox="0 0 26 26" fill="none" xmlns="http://www.w3.org/2000/svg">
<g clip-path="url(#clip0_123_1544)">
<path fill-rule="evenodd" clip-rule="evenodd" d="M26 0.812009C25.9999 0.691848 25.9732 0.573198 25.9218 0.464609C25.8703 0.356019 25.7954 0.260193 25.7025 0.184034C25.6095 0.107876 25.5008 0.0532809 25.3843 0.0241827C25.2677 -0.00491545 25.1461 -0.00779232 25.0283 0.0157594L17.0625 1.60826L9.09675 0.0157594C8.99162 -0.00525307 8.88338 -0.00525307 8.77825 0.0157594L0.65325 1.64076C0.469129 1.67756 0.303437 1.777 0.184346 1.92216C0.0652537 2.06732 0.000113396 2.24925 0 2.43701L0 25.187C7.25607e-05 25.3072 0.0267965 25.4258 0.0782466 25.5344C0.129697 25.643 0.204592 25.7388 0.297536 25.815C0.390481 25.8911 0.499161 25.9457 0.615746 25.9748C0.732331 26.0039 0.853919 26.0068 0.97175 25.9833L8.9375 24.3908L16.9033 25.9833C17.0084 26.0042 17.1166 26.0042 17.2217 25.9833L25.3467 24.3583C25.5309 24.3215 25.6966 24.222 25.8157 24.0769C25.9347 23.9317 25.9999 23.7498 26 23.562V0.812009ZM8.125 22.8958V1.80326L8.9375 1.64076L9.75 1.80326V22.8958L9.09675 22.7658C8.99163 22.7447 8.88337 22.7447 8.77825 22.7658L8.125 22.8958ZM16.25 24.1958V3.10326L16.9033 3.23326C17.0084 3.25427 17.1166 3.25427 17.2217 3.23326L17.875 3.10326V24.1958L17.0625 24.3583L16.25 24.1958Z" fill="#E85B2A"/>
</g>
<defs>
<clipPath id="clip0_123_1544">
<rect width="26" height="26" fill="white"/>
</clipPath>
</defs>
</svg>
