<svg width="36" height="50" viewBox="0 0 36 50" fill="none" xmlns="http://www.w3.org/2000/svg">
<path d="M4.40291 29.0705L4.40374 29.0718C5.56924 30.9454 6.92346 32.6927 8.31783 34.4862L8.37599 34.561C9.74139 36.3172 11.1432 38.1202 12.3669 40.0666M4.40291 29.0705L11.521 40.6M4.40291 29.0705C2.20023 25.5419 1 21.6487 1 17.5C1 8.38516 8.43513 1 17.6471 1C26.859 1 34.2941 8.38516 34.2941 17.5C34.2941 21.6484 33.0941 25.54 30.8686 29.0663L30.8686 29.0663L30.8636 29.0743C29.6985 30.9594 28.3445 32.7127 26.9511 34.505C26.9094 34.5586 26.8677 34.6122 26.8259 34.6659C25.4824 36.3937 24.1062 38.1634 22.9028 40.0653L22.9025 40.0658C21.6796 42.001 20.8245 43.8031 19.89 45.8316L19.8893 45.8333C19.7699 46.0936 19.6482 46.4007 19.5334 46.6902C19.4855 46.8111 19.4388 46.9288 19.3939 47.0389C19.2292 47.4434 19.0651 47.811 18.876 48.1255C18.5031 48.7462 18.1418 49 17.6471 49C17.1522 49 16.7904 48.7462 16.4134 48.123C16.2223 47.8072 16.0557 47.4386 15.8868 47.0322C15.8455 46.9329 15.8028 46.8279 15.759 46.7203C15.6377 46.4222 15.5083 46.1041 15.3785 45.8306M4.40291 29.0705L14.4706 46.25M12.3669 40.0666C12.3671 40.067 12.3674 40.0674 12.3676 40.0678L11.521 40.6M12.3669 40.0666C12.3667 40.0663 12.3665 40.0661 12.3664 40.0658L11.521 40.6M12.3669 40.0666C13.5856 41.9953 14.464 43.7907 15.3785 45.8306M11.521 40.6C12.7059 42.475 13.563 44.225 14.4706 46.25M15.3785 45.8306C15.3767 45.827 15.375 45.8233 15.3733 45.8197L14.4706 46.25M15.3785 45.8306C15.38 45.8341 15.3816 45.8376 15.3831 45.841L14.4706 46.25" fill="#E85B2A" stroke="white" stroke-width="2"/>
<g clip-path="url(#clip0_6_164)">
<path d="M15.0433 20.0909C17.0463 20.0909 18.6632 18.567 18.6632 16.6791V9.85547H16.2499V16.6791H15.0433V9.85547H12.63V16.6791H11.4233V9.85547H9.01007V16.6791C9.01007 18.567 10.627 20.0909 12.63 20.0909V29.1891H15.0433V20.0909Z" fill="white"/>
<path d="M22.2831 29.1891H24.6963V9.85547C22.0417 9.85547 19.8698 11.9026 19.8698 14.4046V21.2282H22.2831V29.1891Z" fill="white"/>
</g>
<defs>
<clipPath id="clip0_6_164">
<rect width="15.6863" height="19.3336" fill="white" transform="translate(9.01007 9.85547)"/>
</clipPath>
</defs>
</svg>
