<svg width="26" height="23" viewBox="0 0 26 23" fill="none" xmlns="http://www.w3.org/2000/svg"><path d="M6.5 0.625C10.0913 0.625 13 3.47688 13 6.995C13 3.47688 15.9087 0.625 19.5 0.625C23.0912 0.625 26 3.47688 26 6.995C26 12.2974 20.7448 14.1678 13.637 22.608C13.5587 22.7007 13.4612 22.7752 13.3512 22.8263C13.2412 22.8774 13.1213 22.9039 13 22.9039C12.8787 22.9039 12.7588 22.8774 12.6488 22.8263C12.5388 22.7752 12.4413 22.7007 12.363 22.608C5.25525 14.1678 0 12.2974 0 6.995C0 3.47688 2.90875 0.625 6.5 0.625Z" fill="white"/></svg>