<svg width="43" height="60" viewBox="0 0 43 60" fill="none" xmlns="http://www.w3.org/2000/svg">
<path d="M5.0981 34.992L5.09893 34.9933C6.49845 37.2519 8.12361 39.3567 9.78938 41.5077L9.85637 41.5942C11.4904 43.7041 13.1609 45.8612 14.6183 48.1886M5.0981 34.992L13.7712 48.72M5.0981 34.992C2.44693 30.7283 1 26.0196 1 21C1 9.94648 9.98 1 21.0938 1C32.2075 1 41.1875 9.94648 41.1875 21C41.1875 26.0193 39.7408 30.7264 37.0619 34.9878L37.0618 34.9878L37.0569 34.9957C35.6578 37.2684 34.0328 39.3805 32.368 41.5302C32.3189 41.5936 32.2697 41.6571 32.2205 41.7206C30.613 43.796 28.9733 45.9129 27.5402 48.1868L27.5399 48.1873C26.0857 50.4974 25.0682 52.6494 23.9516 55.083L23.9508 55.0847C23.8105 55.392 23.6684 55.7517 23.532 56.0971C23.4742 56.2435 23.4174 56.3873 23.3622 56.5234C23.1644 57.0112 22.9634 57.464 22.7293 57.8552C22.2656 58.6298 21.7811 59 21.0938 59C20.4063 59 19.9213 58.6298 19.4529 57.8526C19.2164 57.4601 19.0126 57.0064 18.8098 56.5167C18.7591 56.3942 18.7072 56.266 18.6543 56.1356C18.5097 55.7788 18.3581 55.4048 18.2054 55.082M5.0981 34.992L17.2969 55.5M14.6183 48.1886C14.6185 48.1888 14.6186 48.1891 14.6188 48.1893L13.7712 48.72M14.6183 48.1886C14.618 48.1882 14.6178 48.1877 14.6175 48.1873L13.7712 48.72M14.6183 48.1886C16.0682 50.4921 17.1137 52.6372 18.2054 55.082M13.7712 48.72C15.1875 50.97 16.2121 53.07 17.2969 55.5M18.2054 55.082C18.2037 55.0783 18.2019 55.0747 18.2002 55.0711L17.2969 55.5M18.2054 55.082C18.2069 55.0854 18.2085 55.0889 18.21 55.0924L17.2969 55.5" fill="#FF9042" stroke="white" stroke-width="2"/>
<g clip-path="url(#clip0_6_165)">
<path d="M29.4987 18.0419C29.2579 18.0419 29.0156 17.9506 28.5702 17.9207C27.036 15.322 24.2075 13.5777 20.9707 13.5777C19.5521 13.5777 18.213 13.9145 17.0258 14.5092C15.0006 12.6414 12.6638 13.691 12.6638 13.691L13.9636 17.0427C13.4176 17.7555 12.9778 18.5549 12.6686 19.4156C11.8716 19.5132 11.0399 19.6045 10.5694 19.6288C10.2523 19.6469 9.63395 20.0388 9.66461 20.6713C9.73385 22.1331 10.4451 24.9168 11.2665 25.2032C11.6623 25.3416 12.2209 25.5226 12.7913 25.702C12.999 26.215 13.2539 26.7059 13.5505 27.1654L15.8928 31.6406H18.9676L18.8307 30.0638H23.7339V31.6406H26.7324L29.1541 25.6925C29.1675 25.6595 29.1808 25.6264 29.1942 25.5934L29.3453 25.222L29.3256 25.2283C29.6277 24.3408 29.7914 23.3888 29.7914 22.3974C29.7914 21.4533 29.6411 20.5438 29.3665 19.6909C29.4554 19.6012 29.5726 19.5036 29.73 19.4029C30.5372 18.8837 30.1336 18.0419 29.4987 18.0419ZM15.1305 19.4242C15.1305 19.1009 15.3933 18.8381 15.7174 18.8381C16.0415 18.8381 16.3043 19.1009 16.3043 19.4242C16.3043 19.7492 16.0415 20.012 15.7174 20.012C15.3933 20.012 15.1305 19.7492 15.1305 19.4242ZM17.0109 24.6799C16.1627 24.6799 15.4743 23.9923 15.4743 23.1433C15.4743 22.2952 16.1627 21.6075 17.0109 21.6075C17.8598 21.6075 18.5475 22.2952 18.5475 23.1433C18.5475 23.9923 17.8598 24.6799 17.0109 24.6799Z" fill="white"/>
<path d="M20.9707 12.5675C22.2068 12.5675 23.4161 12.8035 24.5388 13.2441C25.5451 12.4982 26.2005 11.3055 26.2005 9.95537C26.2005 7.69337 24.3665 5.85938 22.1037 5.85938C19.8425 5.85938 18.0077 7.69337 18.0077 9.95537C18.0077 11.0349 18.4286 12.0136 19.11 12.7437C19.7182 12.6273 20.339 12.5675 20.9707 12.5675Z" fill="white"/>
<path d="M22.3261 11.3839V10.4425H23.1602V10.0963H22.3261V9.62721H23.1599V9.28095H22.455L23.6049 7.08704H23.0255L22.0863 8.99449H22.057L21.1178 7.08704H20.5357L21.6826 9.28095H20.9715V9.62756H21.8145V10.0966H20.9722V10.4425H21.8145V11.3839H22.3268H22.3261Z" fill="#FF9042"/>
</g>
<path d="M12.984 36.076C11.676 36.544 9.648 36.94 7.776 37.156C7.956 37.516 8.184 38.14 8.256 38.524C10.224 38.332 12.492 37.96 14.256 37.396L12.984 36.076ZM7.32 36.712V43.84H9.024V37.264L7.32 36.712ZM6.564 43.492L6.888 45.1C8.052 44.944 9.54 44.74 10.92 44.536L10.836 42.976C9.3 43.18 7.692 43.384 6.564 43.492ZM8.364 39.712V41.272H14.688V39.712H8.364ZM10.536 37.588C10.608 41.896 11.208 46.78 13.176 46.78C14.22 46.78 14.736 46.372 14.952 44.392C14.52 44.212 13.968 43.84 13.608 43.468C13.584 44.548 13.5 45.076 13.356 45.076C12.864 45.076 12.24 41.008 12.3 37.588H10.536ZM7.032 45.424V46.948H11.688V45.424H7.032ZM5.664 35.788C5.088 37.444 4.092 39.1 3.06 40.144C3.348 40.576 3.816 41.548 3.972 41.98C5.28 40.588 6.54 38.356 7.308 36.304L5.664 35.788ZM4.56 39.232V47.128H6.216V37.588V37.576L4.56 39.232Z" fill="white"/>
<path d="M18.816 36.892V38.452H26.496V36.892H18.816ZM18.912 39.688V46.852H20.508V41.2H24.768V46.78H26.448V39.688H18.912ZM20.772 37.084V40.816H22.404V37.084H20.772ZM22.86 37.072V40.804H24.504V37.072H22.86ZM19.632 44.728V46.216H26.016V44.728H19.632ZM20.94 40.816V45.892H22.392V40.816H20.94ZM22.86 40.804V45.88H24.312V40.804H22.86ZM17.592 35.764C17.04 37.36 16.092 38.956 15.096 39.964C15.372 40.384 15.828 41.32 15.972 41.728C17.232 40.396 18.432 38.236 19.164 36.268L17.592 35.764ZM16.476 39.244V47.14H18.108V37.624V37.612L16.476 39.244Z" fill="white"/>
<path d="M33.792 37V38.476H36.828V37H33.792ZM32.46 42.58V47.14H34.068V44.032H36.12V47.104H37.8V42.58H32.46ZM33.096 45.304V46.792H37.044V45.304H33.096ZM33.804 35.728C33.276 37.132 32.304 38.5 31.212 39.328C31.596 39.592 32.256 40.192 32.544 40.504C33.66 39.496 34.788 37.864 35.46 36.196L33.804 35.728ZM36.384 37V37.276C35.664 39.592 33.576 41.416 31.044 42.196C31.38 42.532 31.812 43.18 32.016 43.6C34.836 42.532 37.092 40.564 38.076 37.444L36.972 36.94L36.684 37H36.384ZM33.912 37.948L32.604 38.572C33.48 40.432 35.256 42.412 37.812 43.324C38.04 42.892 38.532 42.208 38.88 41.872C36.396 41.212 34.68 39.496 33.912 37.948ZM27.492 38.164V39.772H31.824V38.164H27.492ZM28.956 35.74V47.14H30.6V35.74H28.956ZM28.932 39.304C28.656 40.732 27.996 42.496 27.204 43.516C27.456 43.948 27.84 44.632 27.984 45.112C28.884 43.864 29.556 41.572 29.904 39.64L28.932 39.304ZM30.552 39.868L29.796 40.576C30.144 41.104 30.78 42.184 31.068 42.82L31.98 41.512C31.776 41.248 30.828 40.12 30.552 39.868Z" fill="white"/>
<path fill-rule="evenodd" clip-rule="evenodd" d="M12.6471 35.1344C13.0175 35.0019 13.4311 35.0988 13.7041 35.3821L14.9761 36.7021C15.2158 36.9508 15.3101 37.3057 15.2256 37.6407C15.1411 37.9757 14.8896 38.2433 14.5605 38.3485C14.1613 38.4761 13.7395 38.594 13.3035 38.7022C13.3036 38.7055 13.3036 38.7087 13.3037 38.712H14.688C14.746 38.712 14.8029 38.7169 14.8582 38.7264C15.5638 37.8474 16.2275 36.6499 16.6469 35.4371C16.8246 34.9235 17.3798 34.6458 17.8973 34.8117L19.4693 35.3157C19.7294 35.3991 19.9441 35.5853 20.0635 35.831C20.0732 35.8511 20.0823 35.8714 20.0906 35.892H26.496C27.0483 35.892 27.496 36.3397 27.496 36.892V37.164H27.956V35.74C27.956 35.1877 28.4037 34.74 28.956 34.74H30.6C31.1523 34.74 31.6 35.1877 31.6 35.74V37.164H31.824C31.8505 37.164 31.8767 37.165 31.9027 37.167C32.2955 36.6207 32.6317 36.0044 32.868 35.376C33.0509 34.8896 33.5759 34.6243 34.076 34.7657L35.732 35.2337C36.0052 35.3109 36.2327 35.5006 36.3577 35.7554C36.3962 35.8338 36.4238 35.916 36.4406 36H36.5809L36.768 35.961C36.9766 35.9175 37.1935 35.9418 37.3873 36.0303L38.4913 36.5343C38.9506 36.744 39.1816 37.2632 39.0297 37.7448C38.7195 38.7283 38.2946 39.6074 37.7755 40.3886C38.1936 40.5991 38.6479 40.7756 39.1368 40.9055C39.4855 40.9982 39.7572 41.2714 39.8479 41.6206C39.9386 41.9698 39.8341 42.3408 39.5746 42.5914C39.3557 42.8027 39.0139 43.2592 38.8 43.6099V47.104C38.8 47.6563 38.3523 48.104 37.8 48.104H36.12C35.8343 48.104 35.5765 47.9841 35.3943 47.792H34.8262C34.6429 48.0051 34.3712 48.14 34.068 48.14H32.46C32.0378 48.14 31.6767 47.8783 31.53 47.5083C31.3833 47.8783 31.0222 48.14 30.6 48.14H28.956C28.4037 48.14 27.956 47.6923 27.956 47.14V46.1116C27.9102 46.1103 27.8641 46.1059 27.8181 46.0981C27.6841 46.0756 27.5587 46.0265 27.448 45.9562V46.78C27.448 47.3323 27.0003 47.78 26.448 47.78H24.768C24.372 47.78 24.0298 47.5498 23.8678 47.216H21.4397C21.2941 47.5883 20.9319 47.852 20.508 47.852H18.912C18.8792 47.852 18.8468 47.8504 18.8149 47.8473C18.6339 48.0281 18.384 48.14 18.108 48.14H16.476C15.9237 48.14 15.476 47.6923 15.476 47.14V46.4414C15.384 46.6321 15.2758 46.8064 15.1479 46.9624C14.583 47.6515 13.8226 47.78 13.176 47.78C12.8963 47.78 12.6414 47.7287 12.4101 47.6398C12.2281 47.8297 11.9718 47.948 11.688 47.948H7.032C6.9591 47.948 6.88803 47.9402 6.81956 47.9254C6.65182 48.0525 6.44273 48.128 6.216 48.128H4.56C4.00772 48.128 3.56 47.6803 3.56 47.128V42.8912C3.31665 42.7811 3.12423 42.5766 3.03145 42.3196C2.89783 41.9496 2.46378 41.0524 2.22795 40.6987C1.96474 40.3039 2.01524 39.7784 2.34882 39.441C3.25985 38.5193 4.18419 36.9985 4.71951 35.4595C4.89703 34.9491 5.4479 34.672 5.96347 34.8339L7.60747 35.3499C7.86945 35.4321 8.0861 35.6184 8.20658 35.8652C8.22194 35.8966 8.23556 35.9287 8.24744 35.9613L8.52533 36.0513C10.0871 35.8294 11.6299 35.4984 12.6471 35.1344ZM9.86119 36.85C9.61564 36.8939 9.36722 36.9353 9.11791 36.9741C9.01648 36.9899 8.91491 37.0052 8.81333 37.0201C8.68729 37.0385 8.56122 37.0563 8.4354 37.0733L7.32 36.712V43.4136C7.28507 43.4174 7.2504 43.4212 7.216 43.4249C6.98528 43.45 6.76688 43.4725 6.564 43.492L6.888 45.1C6.93547 45.0936 6.98348 45.0872 7.032 45.0807C7.09256 45.0725 7.15391 45.0643 7.216 45.0559C7.70558 44.9899 8.24097 44.9169 8.79424 44.84C8.87051 44.8294 8.94712 44.8187 9.024 44.8079C9.16206 44.7886 9.30097 44.7691 9.44032 44.7495C9.73384 44.708 10.0293 44.6658 10.3227 44.6233C10.5232 44.5943 10.7227 44.5651 10.92 44.536L10.836 42.976C10.5666 43.0118 10.2949 43.0475 10.024 43.0828C10.0104 43.0846 9.99685 43.0863 9.98328 43.0881C9.93601 43.0943 9.88878 43.1004 9.84158 43.1065C9.56653 43.1421 9.29295 43.1771 9.024 43.2108V41.272H10.7443C10.7692 41.5101 10.7967 41.7451 10.8267 41.976C10.8396 42.0755 10.8531 42.1741 10.867 42.272C10.9008 42.5095 10.9376 42.742 10.9775 42.9684C11.0695 43.491 11.1782 43.9809 11.3057 44.424C11.3143 44.4541 11.3231 44.4841 11.332 44.5138C11.413 44.786 11.5014 45.0397 11.5977 45.2714C11.6193 45.3233 11.6413 45.3742 11.6637 45.424H7.032V46.948H11.688V45.4771C11.9599 46.063 12.2898 46.4828 12.688 46.6704C12.8405 46.7422 13.0029 46.78 13.176 46.78C14.22 46.78 14.736 46.372 14.952 44.392C14.8344 44.343 14.7079 44.2798 14.5788 44.2062C14.3214 44.0594 14.0536 43.8715 13.8254 43.6731C13.7477 43.6055 13.6746 43.5367 13.608 43.468C13.6027 43.7071 13.5944 43.9192 13.5832 44.1045C13.5681 44.3547 13.5476 44.5561 13.5218 44.7092C13.4803 44.9546 13.425 45.076 13.356 45.076C13.2161 45.076 13.0656 44.7471 12.9231 44.1978C12.9218 44.193 12.9206 44.1883 12.9194 44.1835C12.916 44.1705 12.9127 44.1573 12.9094 44.1441C12.8578 43.9393 12.8073 43.706 12.759 43.4491C12.736 43.3271 12.7135 43.1999 12.6915 43.0679C12.65 42.8182 12.6105 42.5517 12.5736 42.272C12.5316 41.9538 12.4931 41.6186 12.459 41.272H14.688V39.712H12.3412C12.3275 39.4518 12.3166 39.1899 12.309 38.9283C12.3069 38.8561 12.3051 38.784 12.3035 38.712C12.3021 38.6527 12.301 38.5935 12.3 38.5343C12.2965 38.3247 12.2953 38.1159 12.2964 37.9088C12.2976 37.9086 12.2988 37.9083 12.3 37.9081C12.5943 37.8447 12.8838 37.7773 13.1658 37.7058C13.2103 37.6945 13.2546 37.6831 13.2988 37.6717C13.6302 37.5855 13.9506 37.4936 14.256 37.396L12.984 36.076C12.4698 36.26 11.8443 36.4328 11.1608 36.588C10.9572 36.6342 10.7485 36.6788 10.536 36.7217C10.3365 36.762 10.1337 36.8008 9.92871 36.8378C9.90623 36.8419 9.88372 36.846 9.86119 36.85ZM9.024 39.712H10.6166C10.607 39.5543 10.5982 39.3962 10.5903 39.2379C10.5815 39.0627 10.5737 38.8872 10.567 38.712C10.5653 38.6706 10.5638 38.6293 10.5623 38.588C10.558 38.4691 10.5541 38.3504 10.5507 38.232C10.5458 38.2327 10.5409 38.2335 10.536 38.2343C10.3652 38.2612 10.1944 38.2868 10.024 38.3113C9.86702 38.3338 9.71043 38.3552 9.55457 38.3756C9.37659 38.3989 9.19956 38.4209 9.024 38.4415V39.712ZM15.0851 42.19C14.9634 42.2427 14.8291 42.272 14.688 42.272H13.5826C13.5916 42.3382 13.6009 42.4035 13.6102 42.4679C13.8753 42.4686 14.1351 42.5747 14.3266 42.7726C14.5932 43.048 15.0319 43.3419 15.3366 43.4689C15.3854 43.4892 15.432 43.5131 15.476 43.5402V42.5963C15.3105 42.5017 15.1742 42.3611 15.0851 42.19ZM16.476 47.14H18.108V38.617C18.137 38.5621 18.1658 38.5071 18.1943 38.452C18.2803 38.2855 18.3641 38.1178 18.4454 37.9493C18.4976 37.8411 18.5488 37.7326 18.5988 37.624C18.6007 37.62 18.6025 37.616 18.6044 37.612C18.6678 37.474 18.7295 37.3359 18.7893 37.198C18.7983 37.1773 18.8071 37.1567 18.816 37.1361V38.452H20.772V39.688H18.912V46.852H20.508V46.216H24.768V46.78H26.448V39.688H24.504V38.452H26.496V36.892H18.9189C19.0054 36.6826 19.0873 36.4743 19.164 36.268L17.592 35.764C17.3964 36.3294 17.1512 36.8948 16.8717 37.434C16.6195 37.9207 16.3394 38.386 16.0429 38.8108C15.9384 38.9605 15.8318 39.1052 15.7237 39.244C15.6915 39.2853 15.6592 39.3262 15.6267 39.3665C15.5768 39.4285 15.5265 39.4892 15.476 39.5485C15.4286 39.6042 15.3809 39.6587 15.3331 39.712C15.2545 39.7995 15.1754 39.8836 15.096 39.964C15.2048 40.1295 15.3415 40.3751 15.476 40.6369C15.4919 40.668 15.5079 40.6992 15.5237 40.7306C15.5802 40.8427 15.6358 40.9563 15.688 41.0667C15.8109 41.3264 15.9155 41.5678 15.972 41.728C16.1414 41.5489 16.3097 41.3548 16.476 41.1483V47.14ZM22.404 38.452V39.688H22.86V38.452H22.404ZM20.508 44.728H20.94V41.2H20.508V44.728ZM22.392 44.728H22.86V41.2H22.392V44.728ZM24.312 44.728H24.768V41.2H24.312V44.728ZM27.448 40.771V40.8919C27.4627 40.852 27.4771 40.8121 27.4914 40.772C27.4769 40.772 27.4624 40.7716 27.448 40.771ZM28.8307 39.772C28.7907 39.9394 28.7462 40.1095 28.6975 40.281C28.6513 40.444 28.6013 40.6081 28.5478 40.772C28.381 41.2833 28.1806 41.7928 27.956 42.2603C27.7976 42.59 27.6272 42.8987 27.448 43.1726C27.3683 43.2944 27.2869 43.4092 27.204 43.516C27.2772 43.6415 27.3616 43.7883 27.448 43.9452C27.4615 43.9697 27.475 43.9944 27.4885 44.0193C27.6692 44.352 27.8525 44.7207 27.956 45.0247C27.9661 45.0545 27.9755 45.0836 27.984 45.112C28.2072 44.8024 28.4165 44.4286 28.6102 44.012C28.7317 43.7507 28.8471 43.4726 28.956 43.183V47.14H30.6V41.9144C30.69 42.0757 30.7764 42.2351 30.8546 42.3854C30.9365 42.543 31.0095 42.6907 31.068 42.82L31.3002 42.487C31.3433 42.5411 31.3868 42.5978 31.4299 42.6561C31.44 42.6697 31.45 42.6833 31.46 42.6971C31.5074 42.7622 31.5543 42.8291 31.6 42.8966C31.6313 42.9428 31.662 42.9893 31.6919 43.0357C31.7673 43.1525 31.8374 43.2684 31.8986 43.3772C31.9429 43.456 31.9825 43.531 32.016 43.6C32.1656 43.5433 32.3137 43.4841 32.46 43.4223V47.14H34.068V46.792H36.12V47.104H37.8V43.3197C37.804 43.3211 37.808 43.3225 37.812 43.324C37.9046 43.1484 38.0409 42.9313 38.1933 42.7128C38.2242 42.6685 38.2558 42.6241 38.2879 42.58C38.4142 42.4061 38.5472 42.2367 38.6731 42.0921C38.7453 42.0093 38.8152 41.9346 38.88 41.872C38.5189 41.776 38.1741 41.6578 37.846 41.521C37.6129 41.4238 37.3883 41.3172 37.1724 41.2027C36.8678 41.041 36.5804 40.8635 36.3109 40.6737C36.5252 40.4213 36.7269 40.1555 36.9149 39.8758C37.0191 39.721 37.1191 39.5619 37.2147 39.3985C37.3864 39.105 37.5441 38.7976 37.6867 38.476C37.7356 38.3658 37.7827 38.2539 37.828 38.1403C37.9179 37.9149 38.0007 37.6828 38.076 37.444L36.972 36.94L36.684 37H35.1001C35.2307 36.7346 35.3513 36.4657 35.46 36.196L33.804 35.728C33.7692 35.8204 33.7325 35.9127 33.694 36.0047C33.5524 36.3429 33.386 36.677 33.1994 37C33.1504 37.0848 33.1 37.1689 33.0483 37.2521C32.9661 37.3843 32.8805 37.5142 32.792 37.6414C32.7705 37.6723 32.7488 37.703 32.7269 37.7336C32.6234 37.8784 32.516 38.0193 32.4053 38.1555C32.403 38.1583 32.4007 38.1611 32.3984 38.164C32.2613 38.3322 32.1192 38.4932 31.9729 38.6456C31.9237 38.6968 31.8741 38.7471 31.824 38.7963V38.164H30.6V35.74H28.956V38.164H27.492V39.772H28.8307ZM31.6574 41.9833C31.6894 41.971 31.7212 41.9585 31.753 41.9458C31.8523 41.9062 31.9508 41.8649 32.0484 41.822C32.1248 41.7884 32.2006 41.7538 32.2758 41.7182C32.3376 41.689 32.399 41.6591 32.46 41.6285C32.492 41.6125 32.5238 41.5963 32.5556 41.58C32.6151 41.5493 32.6741 41.518 32.7327 41.4861C32.8118 41.4431 32.89 41.399 32.9674 41.3538C33.0296 41.3176 33.0912 41.2806 33.1523 41.2429C33.1649 41.2351 33.1776 41.2273 33.1902 41.2194C33.2481 41.1833 33.3055 41.1465 33.3624 41.1091C33.5743 40.97 33.7788 40.8223 33.9752 40.6667C33.9469 40.634 33.9189 40.6012 33.8912 40.5682C33.701 40.342 33.5245 40.1109 33.3618 39.8772C33.3333 39.8363 33.3052 39.7952 33.2775 39.7541C33.2669 39.7662 33.2563 39.7782 33.2457 39.7902C33.0777 39.9803 32.9076 40.1587 32.7372 40.3233C32.7133 40.3465 32.6894 40.3693 32.6655 40.3919C32.6323 40.4231 32.5992 40.4538 32.5661 40.484C32.5587 40.4907 32.5514 40.4973 32.544 40.504C32.5381 40.4976 32.532 40.491 32.5258 40.4844C32.5198 40.478 32.5137 40.4715 32.5074 40.4649C32.3814 40.332 32.2006 40.1574 32.0058 39.9806C32.0049 39.9797 32.0039 39.9788 32.0029 39.978C31.9442 39.9246 31.8841 39.8711 31.824 39.8185C31.8062 39.8029 31.7884 39.7874 31.7706 39.772H30.6V39.9138C30.635 39.9484 30.6762 39.9912 30.7222 40.0404C30.7544 40.0749 30.789 40.1124 30.8253 40.1525C30.8722 40.2041 30.9221 40.2599 30.9738 40.3184C31.0546 40.4097 31.1399 40.5077 31.2257 40.6071C31.2466 40.6314 31.2675 40.6557 31.2884 40.6801C31.3147 40.7107 31.3409 40.7414 31.3669 40.772C31.4209 40.8352 31.474 40.8979 31.5252 40.9587C31.5506 40.9889 31.5756 41.0186 31.6 41.0477C31.7722 41.2532 31.9145 41.4272 31.98 41.512L31.6491 41.9865C31.6519 41.9855 31.6546 41.9844 31.6574 41.9833ZM36.12 44.032H34.068V45.304H36.12V44.032ZM36.2401 42.58C36.1535 42.528 36.068 42.4747 35.9838 42.4203C35.6916 42.2313 35.4144 42.0283 35.1526 41.8141C34.8887 42.032 34.613 42.236 34.3266 42.4265C34.2481 42.4787 34.1688 42.5298 34.0888 42.58H36.2401ZM35.6845 38.7842C35.7483 38.6829 35.8093 38.5802 35.8674 38.476H34.2502C34.2429 38.487 34.2356 38.498 34.2282 38.509C34.2929 38.6114 34.3616 38.7139 34.4341 38.8161C34.5632 38.9981 34.7046 39.1793 34.8581 39.3579C34.892 39.3974 34.9266 39.4368 34.9617 39.476C35.0004 39.5191 35.0398 39.5621 35.0799 39.6049C35.1162 39.5623 35.152 39.5193 35.1872 39.476C35.3676 39.2543 35.5338 39.0234 35.6845 38.7842ZM6.216 38.7176C6.25101 38.6517 6.28568 38.5856 6.32 38.5194C6.41601 38.334 6.5093 38.1471 6.59953 37.9595C6.65897 37.8359 6.71708 37.712 6.77377 37.588C6.7756 37.584 6.77743 37.58 6.77925 37.576C6.79524 37.5409 6.81111 37.5059 6.82686 37.4709C6.86238 37.3919 6.89731 37.3129 6.93162 37.2339C6.96578 37.1553 6.99934 37.0768 7.03227 36.9983C7.07239 36.9027 7.11157 36.8072 7.14978 36.712C7.20458 36.5754 7.25736 36.4393 7.308 36.304L5.664 35.788C5.47343 36.3359 5.23688 36.8838 4.96827 37.4095C4.71641 37.9024 4.43636 38.3759 4.13959 38.8116C4.04115 38.9561 3.94087 39.0964 3.83917 39.232C3.74717 39.3546 3.65402 39.4732 3.56 39.5875C3.3954 39.7875 3.22818 39.9738 3.06 40.144C3.1928 40.3432 3.36388 40.6572 3.52499 40.9802C3.53672 41.0037 3.5484 41.0272 3.56 41.0508C3.73468 41.4055 3.89317 41.7617 3.972 41.98C4.16961 41.7697 4.36612 41.5402 4.56 41.2951V47.128H6.216V38.7176Z" fill="#FF9042"/>
<defs>
<clipPath id="clip0_6_165">
<rect width="25.7812" height="25.7812" fill="white" transform="translate(7.03125 5.85938)"/>
</clipPath>
</defs>
</svg>
