<svg width="45" height="64" viewBox="0 0 45 64" fill="none" xmlns="http://www.w3.org/2000/svg">
<path d="M6.0981 38.992L6.09893 38.9933C7.49845 41.2519 9.12361 43.3567 10.7894 45.5077L10.8564 45.5942C12.4904 47.7041 14.1609 49.8612 15.6183 52.1886M6.0981 38.992L14.7712 52.72M6.0981 38.992C3.44693 34.7283 2 30.0196 2 25C2 13.9465 10.98 5 22.0938 5C33.2075 5 42.1875 13.9465 42.1875 25C42.1875 30.0193 40.7408 34.7264 38.0619 38.9878L38.0618 38.9878L38.0569 38.9957C36.6578 41.2684 35.0328 43.3805 33.368 45.5302C33.3189 45.5936 33.2697 45.6571 33.2205 45.7206C31.613 47.796 29.9733 49.9129 28.5402 52.1868L28.5399 52.1873C27.0857 54.4974 26.0682 56.6494 24.9516 59.083L24.9508 59.0847C24.8105 59.392 24.6684 59.7517 24.532 60.0971C24.4742 60.2435 24.4174 60.3873 24.3622 60.5234C24.1644 61.0112 23.9634 61.464 23.7293 61.8552C23.2656 62.6298 22.7811 63 22.0938 63C21.4063 63 20.9213 62.6298 20.4529 61.8526C20.2164 61.4601 20.0126 61.0064 19.8098 60.5167C19.7591 60.3942 19.7072 60.266 19.6543 60.1356C19.5097 59.7788 19.3581 59.4048 19.2054 59.082M6.0981 38.992L18.2969 59.5M15.6183 52.1886C15.6185 52.1888 15.6186 52.1891 15.6188 52.1893L14.7712 52.72M15.6183 52.1886C15.618 52.1882 15.6178 52.1877 15.6175 52.1873L14.7712 52.72M15.6183 52.1886C17.0682 54.4921 18.1137 56.6372 19.2054 59.082M14.7712 52.72C16.1875 54.97 17.2121 57.07 18.2969 59.5M19.2054 59.082C19.2037 59.0783 19.2019 59.0747 19.2002 59.0711L18.2969 59.5M19.2054 59.082C19.2069 59.0854 19.2085 59.0889 19.21 59.0924L18.2969 59.5" fill="#5DD63F" stroke="white" stroke-width="2"/>
<path d="M30.124 22.3804C29.8914 22.3804 29.6572 22.2977 29.2269 22.2707C27.7443 19.9172 25.011 18.3375 21.8831 18.3375C20.5123 18.3375 19.2183 18.6425 18.071 19.1811C16.1139 17.4896 13.8559 18.4401 13.8559 18.4401L15.1119 21.4755C14.5843 22.121 14.1593 22.845 13.8604 23.6245C13.0903 23.7129 12.2866 23.7955 11.8319 23.8176C11.5255 23.8339 10.928 24.1888 10.9576 24.7617C11.0245 26.0855 11.7118 28.6065 12.5056 28.8658C12.888 28.9912 13.4278 29.1551 13.979 29.3175C14.1797 29.7821 14.4261 30.2268 14.7127 30.6429L16.9762 34.6957H19.9475L19.8152 33.2678H24.5533V34.6957H27.4509L29.7911 29.309C29.804 29.2791 29.8169 29.2491 29.8298 29.2192L29.9758 28.8829L29.9568 28.8886C30.2488 28.0848 30.4069 27.2227 30.4069 26.3249C30.4069 25.4699 30.2617 24.6461 29.9963 23.8738C30.0822 23.7926 30.1955 23.7042 30.3476 23.613C31.1276 23.1427 30.7376 22.3804 30.124 22.3804ZM16.2395 23.6323C16.2395 23.3394 16.4934 23.1014 16.8067 23.1014C17.1199 23.1014 17.3738 23.3394 17.3738 23.6323C17.3738 23.9265 17.1199 24.1645 16.8067 24.1645C16.4934 24.1645 16.2395 23.9265 16.2395 23.6323ZM18.0566 28.392C17.237 28.392 16.5717 27.7692 16.5717 27.0004C16.5717 26.2323 17.237 25.6095 18.0566 25.6095C18.8769 25.6095 19.5415 26.2323 19.5415 27.0004C19.5415 27.7692 18.877 28.392 18.0566 28.392Z" fill="white"/>
<path d="M21.748 17.2656C23.4928 17.2656 25.1999 17.5825 26.7847 18.1739C28.2052 17.1726 29.1304 15.5716 29.1304 13.7592C29.1304 10.7228 26.5416 8.26086 23.3473 8.26086C20.1553 8.26086 17.5652 10.7228 17.5652 13.7592C17.5652 15.2082 18.1594 16.5221 19.1213 17.5022C19.9798 17.3458 20.8561 17.2656 21.748 17.2656Z" fill="white"/>
<path d="M23.7609 16.5218V15.0739H25.1079V14.5414H23.7609V13.8199H25.1074V13.2874H23.969L25.8261 9.91309H24.8904L23.3737 12.8468H23.3263L21.8097 9.91309H20.8696L22.7217 13.2874H21.5734V13.8205H22.9348V14.5419H21.5745V15.0739H22.9348V16.5218H23.7609Z" fill="#5DD63F"/>
<path d="M7.104 36.6321H5.172C5.214 36.8841 5.256 37.5841 5.256 37.8641C5.256 38.5081 5.242 40.2441 5.242 41.8401C5.242 43.5341 5.312 45.4801 5.312 46.2081C5.312 46.6981 5.13 46.8101 4.878 46.8101C4.514 46.8101 3.856 46.4321 3.856 45.9841C3.856 45.3821 4.752 44.6261 6.012 44.1501C7.104 43.7161 8.336 43.4641 9.526 43.4641C10.744 43.4641 11.584 44.0101 11.584 44.9761C11.584 45.9841 10.674 46.5581 9.54 46.7541C9.064 46.8521 8.448 46.8521 7.832 46.8521L8.462 48.6721C9.036 48.6161 9.666 48.5741 10.31 48.4341C12.536 47.8881 13.404 46.6421 13.404 44.9761C13.404 43.0441 11.696 41.9241 9.54 41.9241C8.476 41.9241 7.062 42.1481 5.816 42.5961C3.87 43.2821 2.12 44.7101 2.12 46.0681C2.12 47.5521 4.052 48.7281 5.41 48.7281C6.334 48.7281 6.95 48.2521 6.95 46.5301C6.95 45.7181 6.866 43.2961 6.866 41.7701C6.866 40.4681 6.908 38.9561 6.978 37.8501C6.992 37.5001 7.048 36.8981 7.104 36.6321ZM11.094 38.1581L10.324 39.5161C11.192 39.9361 13.012 40.9861 13.684 41.5461L14.538 40.1181C13.782 39.5861 12.158 38.6761 11.094 38.1581ZM2.498 38.9281L2.54 40.6221C3.016 40.6781 3.562 40.6921 4.486 40.6921C5.718 40.6921 7.972 40.4401 9.554 40.0761L9.512 38.3401C8.07 38.7601 5.886 39.0261 4.43 39.0261C3.926 39.0261 3.324 39.0261 2.498 38.9281Z" fill="white"/>
<path d="M25.668 36.0861C23.372 36.7021 19.508 37.0661 16.134 37.2061C16.288 37.5701 16.498 38.2561 16.54 38.6761C19.97 38.5641 24.002 38.2141 26.886 37.4721L25.668 36.0861ZM16.26 40.0621V41.6721H27.334V40.0621H16.26ZM15.294 43.3241V44.9621H28.16V43.3241H15.294ZM20.866 38.0601V47.2301C20.866 47.5101 20.74 47.6081 20.418 47.6081C20.096 47.6081 18.92 47.6221 17.884 47.5801C18.136 48.0141 18.458 48.7701 18.57 49.2461C19.998 49.2601 21.02 49.2181 21.692 48.9521C22.364 48.7001 22.616 48.2521 22.616 47.2581V38.0601H20.866Z" fill="white"/>
<path d="M29.546 36.4641V44.4581C29.546 46.2221 29.91 46.7401 31.226 46.7401C31.478 46.7401 32.234 46.7401 32.5 46.7401C33.662 46.7401 34.068 45.9841 34.222 43.7441C33.76 43.6461 33.102 43.3661 32.738 43.0721C32.696 44.7521 32.64 45.1301 32.332 45.1301C32.178 45.1301 31.632 45.1301 31.506 45.1301C31.212 45.1301 31.17 45.0461 31.17 44.4581V36.4641H29.546ZM32.878 38.6481C32.094 39.4461 30.764 40.4681 29.812 41.0421L30.764 42.0501C31.744 41.5041 33.046 40.6361 34.096 39.8101L32.878 38.6481ZM33.97 36.6601V38.0741H41.824V36.6601H33.97ZM36.196 42.3161H39.85V43.1981H36.196V42.3161ZM36.196 44.3601H39.85V45.2561H36.196V44.3601ZM36.196 40.2861H39.85V41.1681H36.196V40.2861ZM34.642 39.0541V46.4741H41.502V39.0541H34.642ZM37.106 37.4301C37.036 38.1301 36.84 39.0821 36.658 39.7541L38.156 40.0341C38.408 39.4321 38.758 38.5361 39.066 37.6541L37.106 37.4301ZM36.098 46.4181C35.384 46.9921 33.97 47.7061 32.78 48.0701C33.116 48.3921 33.578 48.8961 33.816 49.2321C35.048 48.8261 36.532 48.0841 37.456 47.3841L36.098 46.4181ZM38.226 47.3981C39.136 47.9301 40.354 48.7421 40.928 49.2601L42.258 48.2661C41.6 47.7341 40.354 46.9781 39.472 46.5021L38.226 47.3981Z" fill="white"/>
<path fill-rule="evenodd" clip-rule="evenodd" d="M9.08873 36.3853C9.04305 36.018 8.89575 35.666 8.65707 35.3719C8.27731 34.9038 7.70672 34.632 7.104 34.632H5.172C4.58409 34.632 4.02597 34.8907 3.64596 35.3393C3.26595 35.7878 3.10256 36.3809 3.19921 36.9608C3.19874 36.958 3.1988 36.9585 3.19932 36.9626C3.19987 36.967 3.20092 36.9754 3.20239 36.9884C3.05568 36.9768 2.90024 36.9617 2.73363 36.9419C2.15755 36.8736 1.58017 37.0587 1.15128 37.4494C0.722381 37.84 0.484235 38.3976 0.498613 38.9776L0.540613 40.6716C0.562339 41.5478 1.1486 42.2926 1.96338 42.5373C1.9423 42.5559 1.92134 42.5745 1.90053 42.5932C1.05563 43.3534 0.119999 44.5495 0.119999 46.068C0.119999 47.7076 1.16088 48.8973 2.07171 49.5664C3.00283 50.2503 4.23101 50.728 5.41 50.728C5.9538 50.728 6.62444 50.6272 7.24543 50.2595C7.63728 50.5596 8.13746 50.7132 8.6562 50.6626C8.73208 50.6552 8.81498 50.6476 8.90382 50.6395C9.39403 50.595 10.0651 50.534 10.7349 50.3884C10.7521 50.3846 10.7693 50.3806 10.7864 50.3764C12.1719 50.0366 13.3736 49.4201 14.2215 48.4134C14.6057 47.9572 14.882 47.4629 15.0704 46.9496C15.1438 46.9578 15.2184 46.962 15.294 46.962H15.9818C15.8083 47.496 15.8655 48.0866 16.1544 48.5843C16.33 48.8867 16.5655 49.4591 16.6232 49.7041C16.8341 50.6004 17.6297 51.2369 18.5504 51.2459C19.8787 51.2589 21.31 51.2485 22.4112 50.8183C23.0569 50.5729 23.7256 50.1355 24.1592 49.3458C24.5475 48.6385 24.616 47.875 24.616 47.258V46.962H27.9903C28.0706 47.1265 28.1654 47.2866 28.2771 47.4397C29.0109 48.4449 30.0766 48.6865 30.8925 48.7312C30.9948 49.0234 31.1651 49.2925 31.3962 49.514C31.6853 49.791 32.0481 50.1963 32.1839 50.388C32.6917 51.1048 33.6077 51.4065 34.442 51.1315C35.5425 50.7689 36.822 50.1756 37.8686 49.5221C38.5722 49.9672 39.2704 50.4581 39.5881 50.7448C40.2973 51.3848 41.3601 51.4339 42.1253 50.862L43.4553 49.868C43.9498 49.4985 44.2459 48.9213 44.2576 48.3041C44.2694 47.6869 43.9955 47.0989 43.5154 46.7107C43.5072 46.704 43.4988 46.6973 43.4904 46.6906C43.4981 46.6195 43.502 46.5472 43.502 46.474V39.1627C43.7057 38.8494 43.824 38.4755 43.824 38.074V36.66C43.824 35.5554 42.9286 34.66 41.824 34.66H33.97C33.4735 34.66 33.0192 34.841 32.6695 35.1405C32.303 34.7256 31.7671 34.464 31.17 34.464H29.546C28.7973 34.464 28.1447 34.8754 27.8019 35.4845L27.1703 34.7658C26.668 34.1941 25.8848 33.9571 25.1497 34.1543C23.0833 34.7087 19.4099 35.0684 16.0511 35.2077C15.3957 35.2349 14.7953 35.5818 14.4443 36.1359C14.1789 36.5551 14.0817 37.0526 14.1606 37.5315C13.4087 37.0985 12.5923 36.663 11.9694 36.3598C11.3515 36.059 10.6507 36.1045 10.093 36.4263C9.76993 36.3282 9.42428 36.3126 9.08873 36.3853ZM8.55932 38.5748C8.22702 38.6446 7.87735 38.7075 7.52164 38.7626C7.43225 38.7764 7.34248 38.7898 7.25252 38.8027C7.14409 38.8182 7.03537 38.8329 6.92668 38.8469C6.92969 38.7745 6.93281 38.7028 6.93603 38.632C6.93806 38.5872 6.94014 38.5428 6.94225 38.4987C6.95291 38.2765 6.96456 38.0637 6.97712 37.864C6.97741 37.8593 6.9777 37.8547 6.978 37.85C6.98944 37.5639 7.02896 37.1094 7.07359 36.8077C7.08356 36.7403 7.09378 36.6806 7.104 36.632H5.172C5.18601 36.7161 5.20002 36.85 5.21247 37.0015C5.23267 37.2474 5.24878 37.5398 5.25411 37.7409C5.25448 37.7547 5.25479 37.7682 5.25506 37.7811C5.25568 37.8116 5.256 37.8394 5.256 37.864C5.256 38.0438 5.25491 38.3088 5.25333 38.632C5.25328 38.6427 5.25323 38.6534 5.25318 38.6643C5.25265 38.7711 5.25208 38.8841 5.25148 39.0023C5.1381 39.0084 5.02691 39.0133 4.91837 39.0171C4.77423 39.0221 4.63475 39.025 4.50104 39.0258C4.49602 39.0258 4.491 39.0259 4.486 39.0259C4.46722 39.026 4.44855 39.026 4.43 39.026C4.09339 39.026 3.71306 39.026 3.25148 38.9968C3.09018 38.9866 2.91895 38.9728 2.7362 38.9543C2.65891 38.9464 2.57954 38.9377 2.498 38.928L2.54 40.622C2.75178 40.6469 2.97742 40.6635 3.24405 40.6743C3.56448 40.6872 3.9441 40.6917 4.43 40.692C4.44851 40.692 4.46718 40.692 4.486 40.692C4.60632 40.692 4.73638 40.6896 4.87462 40.6849C4.99218 40.6809 5.11566 40.6753 5.24408 40.6681C5.24407 40.671 5.24406 40.6739 5.24405 40.6769C5.24374 40.7744 5.24345 40.8726 5.2432 40.9711C5.24317 40.9816 5.24314 40.9922 5.24312 41.0027C5.24312 41.0035 5.24311 41.0043 5.24311 41.0052C5.24248 41.2599 5.24207 41.5165 5.24201 41.77C5.242 41.7934 5.242 41.8167 5.242 41.84C5.242 41.9925 5.24257 42.1471 5.2436 42.3026C5.24441 42.4249 5.24551 42.5477 5.24685 42.6707C5.24739 42.7202 5.24796 42.7698 5.24858 42.8194C5.12336 42.8739 4.99967 42.9313 4.87795 42.9914C4.27495 43.2892 3.72049 43.6523 3.26935 44.0522C2.5992 44.6463 2.157 45.3215 2.12221 45.984C2.12074 46.012 2.12 46.04 2.12 46.068C2.12 47.3663 3.59862 48.4288 4.878 48.6744C5.06105 48.7096 5.24002 48.728 5.41 48.728C5.45476 48.728 5.4988 48.7269 5.54208 48.7246C5.8258 48.7093 6.07694 48.6424 6.28567 48.499C6.44812 48.3874 6.58487 48.2295 6.69128 48.0136C6.79889 47.7954 6.87546 47.5178 6.91617 47.169C6.93846 46.978 6.95 46.7657 6.95 46.53C6.95 46.4409 6.94899 46.3325 6.94719 46.208C6.94598 46.1241 6.94441 46.0329 6.94254 45.9354C6.93773 45.6832 6.93097 45.389 6.92344 45.0703C6.92159 44.992 6.9197 44.9123 6.91777 44.8313C6.91399 44.6721 6.9101 44.5082 6.90622 44.3415C6.90244 44.179 6.89868 44.0138 6.89506 43.8479C7.01709 43.8125 7.14015 43.7794 7.26403 43.7486C7.79592 43.6165 8.3429 43.5273 8.8879 43.4875C9.10125 43.472 9.31429 43.464 9.526 43.464C9.53067 43.464 9.53534 43.464 9.54 43.464C10.7504 43.4682 11.584 44.0137 11.584 44.976C11.584 45.8665 10.8739 46.4182 9.9265 46.6699C9.91398 46.6733 9.90141 46.6765 9.88881 46.6797C9.88595 46.6805 9.8831 46.6812 9.88024 46.6819C9.76966 46.7099 9.656 46.734 9.54 46.754C9.35928 46.7912 9.15838 46.8143 8.94497 46.8286C8.73447 46.8427 8.5118 46.8483 8.2843 46.8505C8.13492 46.852 7.98346 46.852 7.832 46.852L8.462 48.672C8.50524 48.6678 8.5488 48.6636 8.59266 48.6595C8.64505 48.6546 8.69786 48.6498 8.75107 48.6449C9.10149 48.6126 9.46912 48.5788 9.84524 48.5201C9.86406 48.5171 9.88289 48.5141 9.90174 48.5111C10.0369 48.4891 10.1731 48.4638 10.31 48.434C12.2891 47.9486 13.1947 46.9098 13.3713 45.5145C13.3933 45.3404 13.404 45.1608 13.404 44.976C13.404 44.9713 13.404 44.9667 13.404 44.962C13.4028 44.6788 13.3648 44.4132 13.294 44.1661C13.214 43.8866 13.092 43.6307 12.9339 43.4C12.8176 43.2304 12.6818 43.0743 12.5287 42.9323C12.0907 42.526 11.5115 42.2354 10.8447 42.0735C10.6435 42.0247 10.4342 41.9875 10.2185 41.9625C10.1408 41.9535 10.0622 41.946 9.98292 41.9402C9.83773 41.9294 9.68995 41.924 9.54 41.924C9.53534 41.924 9.53067 41.924 9.526 41.924C9.31805 41.9244 9.0969 41.9333 8.86638 41.9507C8.3572 41.9891 7.80229 42.069 7.24296 42.1905C7.11824 42.2176 6.99329 42.2467 6.86859 42.2779C6.86717 42.1262 6.86628 41.9796 6.86606 41.84C6.86603 41.8222 6.86601 41.8046 6.866 41.7871C6.866 41.7814 6.866 41.7757 6.866 41.77C6.866 41.4778 6.86812 41.175 6.87219 40.8686C6.87372 40.7534 6.87553 40.6377 6.8776 40.5218C6.99936 40.5074 7.12191 40.4922 7.24475 40.4763C7.65953 40.4224 8.07762 40.3597 8.47981 40.29C8.6167 40.2662 8.75174 40.2416 8.88419 40.2163C9.11174 40.1728 9.33163 40.127 9.54 40.0792C9.54467 40.0781 9.54934 40.0771 9.554 40.076L9.512 38.34C9.40386 38.3715 9.29156 38.4021 9.1757 38.4318C9.10029 38.4512 9.02339 38.4701 8.94514 38.4887C8.84402 38.5127 8.74068 38.536 8.63547 38.5586C8.6102 38.564 8.58481 38.5694 8.55932 38.5748ZM15.294 44.962H20.866V47.23C20.866 47.2395 20.8659 47.2489 20.8656 47.258C20.8572 47.5166 20.729 47.608 20.418 47.608C20.3689 47.608 20.2998 47.6083 20.2144 47.6087C20.1842 47.6089 20.152 47.609 20.1178 47.6092C19.7569 47.6108 19.1848 47.6122 18.5861 47.6005C18.3525 47.5959 18.1148 47.5894 17.884 47.58C18.136 48.014 18.458 48.77 18.57 49.246C19.2856 49.253 19.8993 49.246 20.418 49.2037C20.9344 49.1617 21.3568 49.0847 21.692 48.952C22.364 48.7 22.616 48.252 22.616 47.258V44.962H28.16V43.324H22.616V41.672H27.334V40.062H22.616V38.2303C22.6996 38.2202 22.7829 38.2099 22.866 38.1994C23.2048 38.1567 23.5396 38.1109 23.869 38.062C23.8735 38.0613 23.8779 38.0607 23.8824 38.06C24.1292 38.0233 24.3728 37.9848 24.6127 37.9444C24.6202 37.9432 24.6278 37.9419 24.6353 37.9406C25.139 37.8556 25.6261 37.7625 26.0905 37.6608C26.3639 37.6009 26.6295 37.538 26.886 37.472L25.668 36.086C25.1337 36.2293 24.5146 36.359 23.8365 36.4754C23.4474 36.5422 23.039 36.6046 22.616 36.6627C22.0544 36.7399 21.4673 36.8094 20.866 36.8715C20.3044 36.9295 19.7305 36.981 19.1536 37.0262C18.8423 37.0505 18.5301 37.073 18.2185 37.0937C17.6376 37.1323 17.0587 37.1645 16.4915 37.1904C16.3718 37.1959 16.2526 37.2011 16.134 37.206C16.2245 37.4199 16.3343 37.745 16.4181 38.062C16.4768 38.2844 16.5227 38.5028 16.54 38.676C17.2925 38.6514 18.074 38.6154 18.866 38.5663C19.4461 38.5303 20.0319 38.4873 20.616 38.4367C20.6994 38.4295 20.7827 38.4221 20.866 38.4145V40.062H16.26V41.672H20.866V43.324H15.294V44.962ZM11.5132 38.3675C11.465 38.3428 11.4174 38.3187 11.3705 38.295C11.275 38.2469 11.1826 38.2011 11.094 38.158L10.324 39.516C10.3523 39.5297 10.3816 39.5441 10.4119 39.5591C10.6599 39.682 10.971 39.8473 11.3051 40.0336C11.3862 40.0788 11.4685 40.1252 11.5517 40.1726C11.5739 40.1852 11.5961 40.1979 11.6184 40.2107C11.7496 40.2858 11.8823 40.363 12.0144 40.4411C12.0354 40.4535 12.0564 40.466 12.0774 40.4785C12.6673 40.8292 13.2369 41.1945 13.5877 41.4685C13.6219 41.4952 13.6541 41.5211 13.684 41.546L14.538 40.118C14.5121 40.0998 14.4852 40.0811 14.4573 40.062C14.3972 40.0209 14.3326 39.9778 14.2641 39.9331C13.5523 39.4688 12.42 38.8308 11.5132 38.3675ZM41.502 46.474V39.054H38.5495C38.599 38.9261 38.6494 38.7944 38.7001 38.66C38.7464 38.5372 38.793 38.4122 38.8394 38.286C38.8652 38.2157 38.891 38.145 38.9167 38.074H41.824V36.66H33.97V38.074H37.0193C37.0079 38.144 36.9958 38.2148 36.9832 38.286C36.9612 38.41 36.9375 38.5353 36.9126 38.66C36.8861 38.7928 36.8581 38.9249 36.8294 39.054H34.642V46.474H36.0267C35.913 46.5614 35.7841 46.6516 35.6434 46.7429C35.5114 46.8285 35.369 46.9151 35.2186 47.0013C35.0744 47.084 34.9229 47.1663 34.7664 47.2471C34.7253 47.2683 34.6838 47.2895 34.642 47.3105C34.2335 47.5158 33.7957 47.7089 33.367 47.8695C33.3286 47.8839 33.2902 47.8981 33.2519 47.9119C33.0922 47.9698 32.9342 48.0228 32.78 48.07C32.9502 48.2332 33.1529 48.443 33.3423 48.6541C33.5267 48.8596 33.6986 49.0663 33.816 49.232C34.3772 49.0471 34.9907 48.7924 35.5798 48.5037C35.5999 48.4939 35.62 48.484 35.6401 48.474C35.884 48.3532 36.1231 48.2267 36.3522 48.0972C36.6126 47.9499 36.8599 47.7985 37.086 47.647C37.217 47.5591 37.3408 47.4712 37.456 47.384L36.1767 46.474H41.502ZM39.85 45.256V44.36H36.196V45.256H39.85ZM39.85 43.198V42.316H36.196V43.198H39.85ZM39.85 41.168V40.286H36.196V41.168H39.85ZM40.496 47.086C40.2761 46.9545 40.0576 46.8277 39.85 46.7107C39.7189 46.6368 39.5921 46.5668 39.472 46.502L38.226 47.398C38.4078 47.5043 38.6019 47.6218 38.8007 47.7458C38.975 47.8546 39.153 47.9685 39.3294 48.0843C39.5256 48.2132 39.72 48.3445 39.9055 48.474C39.9481 48.5037 39.9902 48.5334 40.0318 48.5629C40.3899 48.817 40.7068 49.0604 40.928 49.26L42.258 48.266C42.1805 48.2033 42.0947 48.1375 42.0024 48.0694C41.8511 47.9578 41.682 47.84 41.502 47.7197C41.2077 47.5231 40.8844 47.3198 40.5619 47.1256C40.5399 47.1124 40.5179 47.0992 40.496 47.086ZM33.9987 45.3912C34.1056 44.9648 34.1754 44.4224 34.222 43.744C33.9104 43.6779 33.5096 43.529 33.17 43.3489C33.0469 43.2835 32.9318 43.2141 32.832 43.1431C32.7989 43.1195 32.7675 43.0958 32.738 43.072C32.7369 43.1171 32.7357 43.1612 32.7346 43.2044C32.7304 43.3618 32.726 43.507 32.7212 43.6408C32.7206 43.6589 32.7199 43.6767 32.7192 43.6943C32.7074 44.0102 32.6929 44.2607 32.6726 44.458C32.6637 44.5457 32.6535 44.6229 32.642 44.6907C32.6087 44.8865 32.5635 45.0032 32.5 45.0665C32.4543 45.112 32.3992 45.13 32.332 45.13H31.506C31.3572 45.13 31.2729 45.1085 31.226 45.0109C31.202 44.9609 31.1877 44.891 31.1796 44.7937C31.1782 44.7765 31.1769 44.7585 31.1759 44.7396C31.1715 44.6617 31.17 44.5688 31.17 44.458V41.8164C31.1772 41.8121 31.1845 41.8078 31.1918 41.8035C31.3072 41.7349 31.4255 41.6631 31.546 41.5885C31.7786 41.4446 32.0191 41.2904 32.2622 41.1294C32.3247 41.088 32.3873 41.0461 32.45 41.0039C32.514 40.9608 32.578 40.9174 32.642 40.8736C32.8188 40.7526 32.9955 40.6289 33.17 40.5038C33.373 40.3584 33.5732 40.211 33.7672 40.0639C33.8356 40.012 33.9033 39.9601 33.97 39.9084C34.0057 39.8807 34.0412 39.853 34.0764 39.8254C34.083 39.8203 34.0895 39.8151 34.096 39.81L32.878 38.648C32.8064 38.7209 32.7302 38.7957 32.6502 38.8718C32.5423 38.9744 32.4274 39.0795 32.3073 39.1858C32.0697 39.396 31.8115 39.6109 31.546 39.8208C31.52 39.8414 31.4939 39.8619 31.4678 39.8824C31.3691 39.9596 31.2696 40.0361 31.17 40.1112V36.464H29.546V44.458C29.546 44.6388 29.5498 44.8066 29.5581 44.962C29.5848 45.4636 29.658 45.837 29.7989 46.1086C30.0403 46.5737 30.4803 46.74 31.226 46.74H32.5C32.5546 46.74 32.6075 46.7383 32.6589 46.7349C32.9634 46.7147 33.211 46.6329 33.4125 46.474C33.6809 46.2624 33.8677 45.9139 33.9987 45.3912ZM5.27906 44.4788C5.15037 44.5468 5.02834 44.6174 4.91385 44.69C4.84615 44.7329 4.78109 44.7765 4.71885 44.8207C4.18265 45.2009 3.856 45.6205 3.856 45.984C3.856 46.0123 3.85863 46.0403 3.86364 46.068C3.87231 46.1159 3.88813 46.1627 3.90985 46.208C4.07425 46.5512 4.57679 46.81 4.878 46.81C4.89968 46.81 4.92084 46.8092 4.94141 46.8073C5.03916 46.7987 5.1236 46.7674 5.18709 46.6955C5.22318 46.6546 5.25251 46.6006 5.27365 46.53C5.29846 46.4472 5.312 46.3417 5.312 46.208C5.312 46.1428 5.31144 46.0677 5.31041 45.984C5.3074 45.7372 5.30037 45.4145 5.29192 45.0431C5.2907 44.9896 5.28945 44.9351 5.28818 44.8796C5.28804 44.8736 5.2879 44.8676 5.28776 44.8615C5.28494 44.7382 5.28201 44.6103 5.27906 44.4788Z" fill="#5DD63F"/>
</svg>
