<svg width="50" height="60" viewBox="0 0 50 60" fill="none" xmlns="http://www.w3.org/2000/svg">
<path d="M9.11466 34.9918L9.11383 34.9905C6.45233 30.7269 5 26.0187 5 21C5 9.95016 14.0133 1 25.1765 1C36.3397 1 45.3529 9.95016 45.3529 21C45.3529 26.0184 43.9008 30.725 41.2115 34.9863L41.2114 34.9863L41.2065 34.9943C39.8019 37.2669 38.1705 39.3789 36.4992 41.5287L36.3512 41.719C34.7374 43.7944 33.0912 45.9114 31.6524 48.1853L31.6521 48.1858C30.1922 50.496 29.1707 52.6481 28.0497 55.0816L28.0489 55.0833C27.908 55.3907 27.7654 55.7505 27.6284 56.0959C27.5704 56.2423 27.5134 56.386 27.458 56.5221C27.2594 57.0098 27.0577 57.4626 26.8227 57.8537C26.3577 58.6274 25.8704 59 25.1765 59C24.4824 59 23.9946 58.6274 23.5249 57.8511C23.2875 57.4587 23.083 57.005 22.8794 56.5154C22.8285 56.3929 22.7764 56.2648 22.7233 56.1343C22.5781 55.7775 22.4259 55.4035 22.2726 55.0806C21.1765 52.6356 20.1267 50.4902 18.6709 48.1863C17.2079 45.8592 15.531 43.7023 13.8908 41.5927L13.8235 41.5062C12.1512 39.3552 10.5197 37.2504 9.11466 34.9918Z" fill="#FF9042" stroke="white" stroke-width="2"/>
<path d="M23.2941 25.8824C23.2941 25.8824 21.8235 25.8824 21.8235 24.4118C21.8235 22.9412 23.2941 18.5295 29.1765 18.5295C35.0588 18.5295 36.5294 22.9412 36.5294 24.4118C36.5294 25.8824 35.0588 25.8824 35.0588 25.8824H23.2941ZM29.1765 17.0589C30.3465 17.0589 31.4687 16.5941 32.2961 15.7667C33.1234 14.9393 33.5882 13.8172 33.5882 12.6471C33.5882 11.477 33.1234 10.3549 32.2961 9.52753C31.4687 8.70016 30.3465 8.23535 29.1765 8.23535C28.0064 8.23535 26.8843 8.70016 26.0569 9.52753C25.2295 10.3549 24.7647 11.477 24.7647 12.6471C24.7647 13.8172 25.2295 14.9393 26.0569 15.7667C26.8843 16.5941 28.0064 17.0589 29.1765 17.0589Z" fill="white"/>
<path fill-rule="evenodd" clip-rule="evenodd" d="M20.6706 25.8823C20.4526 25.4232 20.3439 24.9198 20.3529 24.4117C20.3529 22.419 21.3529 20.3676 23.2 18.9411C22.2781 18.657 21.3176 18.5181 20.3529 18.5293C14.4706 18.5293 13 22.9411 13 24.4117C13 25.8823 14.4706 25.8823 14.4706 25.8823H20.6706Z" fill="white"/>
<path d="M19.6176 17.0589C20.5927 17.0589 21.5278 16.6715 22.2173 15.9821C22.9068 15.2926 23.2941 14.3575 23.2941 13.3824C23.2941 12.4073 22.9068 11.4722 22.2173 10.7827C21.5278 10.0933 20.5927 9.70593 19.6176 9.70593C18.6426 9.70593 17.7075 10.0933 17.018 10.7827C16.3285 11.4722 15.9412 12.4073 15.9412 13.3824C15.9412 14.3575 16.3285 15.2926 17.018 15.9821C17.7075 16.6715 18.6426 17.0589 19.6176 17.0589Z" fill="white"/>
<mask id="path-5-outside-1_72_3104" maskUnits="userSpaceOnUse" x="0.804001" y="27.172" width="49" height="27" fill="black">
<rect fill="white" x="0.804001" y="27.172" width="49" height="27"/>
<path d="M10.9452 31.164L9.43319 30.408C9.19319 30.516 8.46119 30.588 8.11319 30.588C7.45319 30.588 5.55719 30.588 4.68119 30.588C4.27319 30.588 3.62519 30.54 3.21719 30.492V32.532C3.67319 32.496 4.18919 32.472 4.69319 32.472C5.55719 32.472 7.64519 32.472 8.50919 32.472C8.47319 33.324 7.99319 36.084 7.80119 37.188H9.94919C10.1292 36.072 10.6332 33.012 10.8012 31.8C10.8132 31.704 10.8852 31.356 10.9452 31.164ZM1.92119 36.6V38.712C2.34119 38.664 2.79719 38.64 3.18119 38.64H11.1252C11.4252 38.64 11.9652 38.664 12.3132 38.712V36.6C12.0012 36.648 11.5812 36.708 11.1252 36.708H3.18119C2.78519 36.708 2.31719 36.672 1.92119 36.6Z"/>
<path d="M14.1492 33.24V35.532C14.6412 35.496 15.5412 35.46 16.2252 35.46C17.9292 35.46 21.4092 35.46 22.5972 35.46C23.0892 35.46 23.7612 35.52 24.0732 35.532V33.24C23.7252 33.264 23.1372 33.324 22.5972 33.324C21.4212 33.324 17.9412 33.324 16.2252 33.324C15.6372 33.324 14.6292 33.276 14.1492 33.24Z"/>
<path d="M34.8308 29.568L33.8828 29.868C34.1228 30.372 34.2908 30.984 34.4588 31.5L35.4188 31.188C35.2988 30.732 35.0588 30.06 34.8308 29.568ZM36.0908 29.172L35.1428 29.472C35.3828 29.964 35.5868 30.576 35.7548 31.092L36.7028 30.792C36.5708 30.348 36.3188 29.664 36.0908 29.172ZM33.8588 33.984V30.684C33.8588 30.192 33.9068 29.808 33.9428 29.496H31.8788C31.9268 29.796 31.9508 30.192 31.9508 30.684V34.032C31.9508 36.744 30.9788 37.788 28.5788 38.58L30.1388 40.044C33.1268 38.736 33.8588 36.828 33.8588 33.984ZM29.5148 29.616H27.4508C27.4988 30.036 27.5348 30.42 27.5348 30.816V35.052C27.5348 35.64 27.4988 36.108 27.4628 36.408H29.4908C29.4668 36.108 29.4308 35.64 29.4308 35.052V30.828C29.4308 30.312 29.4788 29.904 29.5148 29.616ZM25.3148 31.68V33.648C25.6628 33.624 26.0228 33.6 26.6708 33.6H34.5068C35.1908 33.6 35.6108 33.6 35.9468 33.636V31.716C35.5268 31.788 35.1908 31.812 34.4948 31.812H26.6708C26.0228 31.812 25.5908 31.728 25.3148 31.68Z"/>
<path d="M37.9148 33.24V35.532C38.4068 35.496 39.3068 35.46 39.9908 35.46C41.6948 35.46 45.1748 35.46 46.3628 35.46C46.8548 35.46 47.5268 35.52 47.8388 35.532V33.24C47.4908 33.264 46.9028 33.324 46.3628 33.324C45.1868 33.324 41.7068 33.324 39.9908 33.324C39.4028 33.324 38.3948 33.276 37.9148 33.24Z"/>
<path d="M6.412 42.16H4.42C4.456 42.388 4.504 43.084 4.504 43.336C4.504 43.912 4.504 45.148 4.504 46.504C4.504 48.028 4.576 49.696 4.576 50.284C4.576 50.704 4.408 50.752 4.228 50.752C4 50.752 3.592 50.512 3.592 50.224C3.592 49.756 4.276 49.192 5.296 48.808C6.184 48.472 7.288 48.256 8.272 48.256C9.268 48.256 9.868 48.688 9.868 49.396C9.868 50.128 9.196 50.572 8.272 50.728C7.876 50.8 7.348 50.812 6.772 50.812L7.432 52.696C7.96 52.648 8.5 52.6 9.064 52.48C11.116 51.964 11.764 50.812 11.764 49.408C11.764 47.632 10.192 46.66 8.296 46.66C7.408 46.66 6.184 46.84 5.116 47.2C3.34 47.8 1.804 49.084 1.804 50.308C1.804 51.688 3.508 52.744 4.804 52.744C5.668 52.744 6.268 52.324 6.268 50.632C6.268 49.972 6.184 47.776 6.184 46.444C6.184 45.388 6.22 44.404 6.28 43.324C6.304 43.012 6.364 42.388 6.412 42.16ZM9.652 43.444L8.872 44.86C9.604 45.196 11.296 46.132 11.86 46.576L12.724 45.1C12.052 44.656 10.612 43.888 9.652 43.444ZM2.2 44.02L2.236 45.772C2.644 45.82 3.124 45.832 3.988 45.832C5.032 45.832 6.94 45.64 8.356 45.328L8.32 43.528C7.06 43.888 5.212 44.104 3.928 44.104C3.496 44.104 2.932 44.104 2.2 44.02Z"/>
<path d="M21.016 42.232H18.916C18.952 42.412 19 42.856 19.048 43.432C19.096 44.044 19.096 46.3 19.096 47.164L20.92 47.692C20.908 46.732 20.884 44.212 20.92 43.42C20.932 43.204 20.98 42.46 21.016 42.232ZM13.996 43.624L14.044 45.364C15.856 45.28 18.136 45.184 20.38 45.184C22.156 45.184 23.452 45.22 24.244 45.256L24.268 43.54C23.548 43.528 21.532 43.552 20.44 43.552C19.132 43.552 15.88 43.636 13.996 43.624ZM20.608 47.212L19.228 46.924C19.72 48.424 19.216 48.832 18.748 48.832C18.364 48.832 17.98 48.532 17.98 48.1C17.98 47.548 18.376 47.32 18.748 47.32C19.216 47.32 19.576 47.644 19.576 48.256C19.576 50.428 17.788 51.088 15.832 51.484L17.38 53.032C20.38 52.216 21.376 50.128 21.376 48.592C21.376 47.044 20.476 45.796 18.796 45.796C17.404 45.796 16.24 46.684 16.24 48.136C16.24 49.684 17.488 50.44 18.364 50.44C19.912 50.44 20.608 49.372 20.608 47.212Z"/>
<path d="M33.016 42.232H30.916C30.952 42.412 31 42.856 31.048 43.432C31.096 44.044 31.096 46.3 31.096 47.164L32.92 47.692C32.908 46.732 32.884 44.212 32.92 43.42C32.932 43.204 32.98 42.46 33.016 42.232ZM25.996 43.624L26.044 45.364C27.856 45.28 30.136 45.184 32.38 45.184C34.156 45.184 35.452 45.22 36.244 45.256L36.268 43.54C35.548 43.528 33.532 43.552 32.44 43.552C31.132 43.552 27.88 43.636 25.996 43.624ZM32.608 47.212L31.228 46.924C31.72 48.424 31.216 48.832 30.748 48.832C30.364 48.832 29.98 48.532 29.98 48.1C29.98 47.548 30.376 47.32 30.748 47.32C31.216 47.32 31.576 47.644 31.576 48.256C31.576 50.428 29.788 51.088 27.832 51.484L29.38 53.032C32.38 52.216 33.376 50.128 33.376 48.592C33.376 47.044 32.476 45.796 30.796 45.796C29.404 45.796 28.24 46.684 28.24 48.136C28.24 49.684 29.488 50.44 30.364 50.44C31.912 50.44 32.608 49.372 32.608 47.212Z"/>
<path d="M45.592 42.52L43.576 42.328C43.588 42.616 43.552 43.192 43.48 43.6C43.264 44.92 42.628 47.128 41.632 48.568C40.996 49.504 40.444 50.128 39.904 50.128C39.544 50.128 39.352 49.816 39.352 49.348C39.352 48.412 39.856 47.296 40.744 46.672C41.524 46.108 42.448 45.616 43.756 45.616C45.364 45.616 46.396 46.648 46.396 48.208C46.396 49.504 45.556 50.872 42.844 51.1L43.96 52.792C46.42 52.396 48.292 50.932 48.292 48.304C48.292 45.724 46.48 43.996 43.936 43.996C42.616 43.996 41.392 44.296 40.06 45.136C38.572 46.072 37.648 47.848 37.648 49.504C37.648 51.136 38.644 52.024 39.688 52.024C40.792 52.024 41.5 51.568 42.712 50.104C43.984 48.58 44.728 46.084 45.268 43.888C45.352 43.552 45.484 42.868 45.592 42.52ZM40.444 42.832L38.536 43.432C38.788 43.936 38.932 44.308 39.076 44.764C39.688 46.696 40.408 48.652 41.224 49.804C41.572 50.32 41.884 50.692 42.352 51.22L43.828 50.056C43.276 49.528 42.712 48.796 42.304 48.184C41.728 47.296 41.104 45.472 40.708 44.032C40.612 43.672 40.516 43.276 40.444 42.832Z"/>
</mask>
<path d="M10.9452 31.164L9.43319 30.408C9.19319 30.516 8.46119 30.588 8.11319 30.588C7.45319 30.588 5.55719 30.588 4.68119 30.588C4.27319 30.588 3.62519 30.54 3.21719 30.492V32.532C3.67319 32.496 4.18919 32.472 4.69319 32.472C5.55719 32.472 7.64519 32.472 8.50919 32.472C8.47319 33.324 7.99319 36.084 7.80119 37.188H9.94919C10.1292 36.072 10.6332 33.012 10.8012 31.8C10.8132 31.704 10.8852 31.356 10.9452 31.164ZM1.92119 36.6V38.712C2.34119 38.664 2.79719 38.64 3.18119 38.64H11.1252C11.4252 38.64 11.9652 38.664 12.3132 38.712V36.6C12.0012 36.648 11.5812 36.708 11.1252 36.708H3.18119C2.78519 36.708 2.31719 36.672 1.92119 36.6Z" fill="white"/>
<path d="M14.1492 33.24V35.532C14.6412 35.496 15.5412 35.46 16.2252 35.46C17.9292 35.46 21.4092 35.46 22.5972 35.46C23.0892 35.46 23.7612 35.52 24.0732 35.532V33.24C23.7252 33.264 23.1372 33.324 22.5972 33.324C21.4212 33.324 17.9412 33.324 16.2252 33.324C15.6372 33.324 14.6292 33.276 14.1492 33.24Z" fill="white"/>
<path d="M34.8308 29.568L33.8828 29.868C34.1228 30.372 34.2908 30.984 34.4588 31.5L35.4188 31.188C35.2988 30.732 35.0588 30.06 34.8308 29.568ZM36.0908 29.172L35.1428 29.472C35.3828 29.964 35.5868 30.576 35.7548 31.092L36.7028 30.792C36.5708 30.348 36.3188 29.664 36.0908 29.172ZM33.8588 33.984V30.684C33.8588 30.192 33.9068 29.808 33.9428 29.496H31.8788C31.9268 29.796 31.9508 30.192 31.9508 30.684V34.032C31.9508 36.744 30.9788 37.788 28.5788 38.58L30.1388 40.044C33.1268 38.736 33.8588 36.828 33.8588 33.984ZM29.5148 29.616H27.4508C27.4988 30.036 27.5348 30.42 27.5348 30.816V35.052C27.5348 35.64 27.4988 36.108 27.4628 36.408H29.4908C29.4668 36.108 29.4308 35.64 29.4308 35.052V30.828C29.4308 30.312 29.4788 29.904 29.5148 29.616ZM25.3148 31.68V33.648C25.6628 33.624 26.0228 33.6 26.6708 33.6H34.5068C35.1908 33.6 35.6108 33.6 35.9468 33.636V31.716C35.5268 31.788 35.1908 31.812 34.4948 31.812H26.6708C26.0228 31.812 25.5908 31.728 25.3148 31.68Z" fill="white"/>
<path d="M37.9148 33.24V35.532C38.4068 35.496 39.3068 35.46 39.9908 35.46C41.6948 35.46 45.1748 35.46 46.3628 35.46C46.8548 35.46 47.5268 35.52 47.8388 35.532V33.24C47.4908 33.264 46.9028 33.324 46.3628 33.324C45.1868 33.324 41.7068 33.324 39.9908 33.324C39.4028 33.324 38.3948 33.276 37.9148 33.24Z" fill="white"/>
<path d="M6.412 42.16H4.42C4.456 42.388 4.504 43.084 4.504 43.336C4.504 43.912 4.504 45.148 4.504 46.504C4.504 48.028 4.576 49.696 4.576 50.284C4.576 50.704 4.408 50.752 4.228 50.752C4 50.752 3.592 50.512 3.592 50.224C3.592 49.756 4.276 49.192 5.296 48.808C6.184 48.472 7.288 48.256 8.272 48.256C9.268 48.256 9.868 48.688 9.868 49.396C9.868 50.128 9.196 50.572 8.272 50.728C7.876 50.8 7.348 50.812 6.772 50.812L7.432 52.696C7.96 52.648 8.5 52.6 9.064 52.48C11.116 51.964 11.764 50.812 11.764 49.408C11.764 47.632 10.192 46.66 8.296 46.66C7.408 46.66 6.184 46.84 5.116 47.2C3.34 47.8 1.804 49.084 1.804 50.308C1.804 51.688 3.508 52.744 4.804 52.744C5.668 52.744 6.268 52.324 6.268 50.632C6.268 49.972 6.184 47.776 6.184 46.444C6.184 45.388 6.22 44.404 6.28 43.324C6.304 43.012 6.364 42.388 6.412 42.16ZM9.652 43.444L8.872 44.86C9.604 45.196 11.296 46.132 11.86 46.576L12.724 45.1C12.052 44.656 10.612 43.888 9.652 43.444ZM2.2 44.02L2.236 45.772C2.644 45.82 3.124 45.832 3.988 45.832C5.032 45.832 6.94 45.64 8.356 45.328L8.32 43.528C7.06 43.888 5.212 44.104 3.928 44.104C3.496 44.104 2.932 44.104 2.2 44.02Z" fill="white"/>
<path d="M21.016 42.232H18.916C18.952 42.412 19 42.856 19.048 43.432C19.096 44.044 19.096 46.3 19.096 47.164L20.92 47.692C20.908 46.732 20.884 44.212 20.92 43.42C20.932 43.204 20.98 42.46 21.016 42.232ZM13.996 43.624L14.044 45.364C15.856 45.28 18.136 45.184 20.38 45.184C22.156 45.184 23.452 45.22 24.244 45.256L24.268 43.54C23.548 43.528 21.532 43.552 20.44 43.552C19.132 43.552 15.88 43.636 13.996 43.624ZM20.608 47.212L19.228 46.924C19.72 48.424 19.216 48.832 18.748 48.832C18.364 48.832 17.98 48.532 17.98 48.1C17.98 47.548 18.376 47.32 18.748 47.32C19.216 47.32 19.576 47.644 19.576 48.256C19.576 50.428 17.788 51.088 15.832 51.484L17.38 53.032C20.38 52.216 21.376 50.128 21.376 48.592C21.376 47.044 20.476 45.796 18.796 45.796C17.404 45.796 16.24 46.684 16.24 48.136C16.24 49.684 17.488 50.44 18.364 50.44C19.912 50.44 20.608 49.372 20.608 47.212Z" fill="white"/>
<path d="M33.016 42.232H30.916C30.952 42.412 31 42.856 31.048 43.432C31.096 44.044 31.096 46.3 31.096 47.164L32.92 47.692C32.908 46.732 32.884 44.212 32.92 43.42C32.932 43.204 32.98 42.46 33.016 42.232ZM25.996 43.624L26.044 45.364C27.856 45.28 30.136 45.184 32.38 45.184C34.156 45.184 35.452 45.22 36.244 45.256L36.268 43.54C35.548 43.528 33.532 43.552 32.44 43.552C31.132 43.552 27.88 43.636 25.996 43.624ZM32.608 47.212L31.228 46.924C31.72 48.424 31.216 48.832 30.748 48.832C30.364 48.832 29.98 48.532 29.98 48.1C29.98 47.548 30.376 47.32 30.748 47.32C31.216 47.32 31.576 47.644 31.576 48.256C31.576 50.428 29.788 51.088 27.832 51.484L29.38 53.032C32.38 52.216 33.376 50.128 33.376 48.592C33.376 47.044 32.476 45.796 30.796 45.796C29.404 45.796 28.24 46.684 28.24 48.136C28.24 49.684 29.488 50.44 30.364 50.44C31.912 50.44 32.608 49.372 32.608 47.212Z" fill="white"/>
<path d="M45.592 42.52L43.576 42.328C43.588 42.616 43.552 43.192 43.48 43.6C43.264 44.92 42.628 47.128 41.632 48.568C40.996 49.504 40.444 50.128 39.904 50.128C39.544 50.128 39.352 49.816 39.352 49.348C39.352 48.412 39.856 47.296 40.744 46.672C41.524 46.108 42.448 45.616 43.756 45.616C45.364 45.616 46.396 46.648 46.396 48.208C46.396 49.504 45.556 50.872 42.844 51.1L43.96 52.792C46.42 52.396 48.292 50.932 48.292 48.304C48.292 45.724 46.48 43.996 43.936 43.996C42.616 43.996 41.392 44.296 40.06 45.136C38.572 46.072 37.648 47.848 37.648 49.504C37.648 51.136 38.644 52.024 39.688 52.024C40.792 52.024 41.5 51.568 42.712 50.104C43.984 48.58 44.728 46.084 45.268 43.888C45.352 43.552 45.484 42.868 45.592 42.52ZM40.444 42.832L38.536 43.432C38.788 43.936 38.932 44.308 39.076 44.764C39.688 46.696 40.408 48.652 41.224 49.804C41.572 50.32 41.884 50.692 42.352 51.22L43.828 50.056C43.276 49.528 42.712 48.796 42.304 48.184C41.728 47.296 41.104 45.472 40.708 44.032C40.612 43.672 40.516 43.276 40.444 42.832Z" fill="white"/>
<path d="M10.9452 31.164L9.43319 30.408C9.19319 30.516 8.46119 30.588 8.11319 30.588C7.45319 30.588 5.55719 30.588 4.68119 30.588C4.27319 30.588 3.62519 30.54 3.21719 30.492V32.532C3.67319 32.496 4.18919 32.472 4.69319 32.472C5.55719 32.472 7.64519 32.472 8.50919 32.472C8.47319 33.324 7.99319 36.084 7.80119 37.188H9.94919C10.1292 36.072 10.6332 33.012 10.8012 31.8C10.8132 31.704 10.8852 31.356 10.9452 31.164ZM1.92119 36.6V38.712C2.34119 38.664 2.79719 38.64 3.18119 38.64H11.1252C11.4252 38.64 11.9652 38.664 12.3132 38.712V36.6C12.0012 36.648 11.5812 36.708 11.1252 36.708H3.18119C2.78519 36.708 2.31719 36.672 1.92119 36.6Z" stroke="#FF9042" stroke-width="2" stroke-linejoin="round" mask="url(#path-5-outside-1_72_3104)"/>
<path d="M14.1492 33.24V35.532C14.6412 35.496 15.5412 35.46 16.2252 35.46C17.9292 35.46 21.4092 35.46 22.5972 35.46C23.0892 35.46 23.7612 35.52 24.0732 35.532V33.24C23.7252 33.264 23.1372 33.324 22.5972 33.324C21.4212 33.324 17.9412 33.324 16.2252 33.324C15.6372 33.324 14.6292 33.276 14.1492 33.24Z" stroke="#FF9042" stroke-width="2" stroke-linejoin="round" mask="url(#path-5-outside-1_72_3104)"/>
<path d="M34.8308 29.568L33.8828 29.868C34.1228 30.372 34.2908 30.984 34.4588 31.5L35.4188 31.188C35.2988 30.732 35.0588 30.06 34.8308 29.568ZM36.0908 29.172L35.1428 29.472C35.3828 29.964 35.5868 30.576 35.7548 31.092L36.7028 30.792C36.5708 30.348 36.3188 29.664 36.0908 29.172ZM33.8588 33.984V30.684C33.8588 30.192 33.9068 29.808 33.9428 29.496H31.8788C31.9268 29.796 31.9508 30.192 31.9508 30.684V34.032C31.9508 36.744 30.9788 37.788 28.5788 38.58L30.1388 40.044C33.1268 38.736 33.8588 36.828 33.8588 33.984ZM29.5148 29.616H27.4508C27.4988 30.036 27.5348 30.42 27.5348 30.816V35.052C27.5348 35.64 27.4988 36.108 27.4628 36.408H29.4908C29.4668 36.108 29.4308 35.64 29.4308 35.052V30.828C29.4308 30.312 29.4788 29.904 29.5148 29.616ZM25.3148 31.68V33.648C25.6628 33.624 26.0228 33.6 26.6708 33.6H34.5068C35.1908 33.6 35.6108 33.6 35.9468 33.636V31.716C35.5268 31.788 35.1908 31.812 34.4948 31.812H26.6708C26.0228 31.812 25.5908 31.728 25.3148 31.68Z" stroke="#FF9042" stroke-width="2" stroke-linejoin="round" mask="url(#path-5-outside-1_72_3104)"/>
<path d="M37.9148 33.24V35.532C38.4068 35.496 39.3068 35.46 39.9908 35.46C41.6948 35.46 45.1748 35.46 46.3628 35.46C46.8548 35.46 47.5268 35.52 47.8388 35.532V33.24C47.4908 33.264 46.9028 33.324 46.3628 33.324C45.1868 33.324 41.7068 33.324 39.9908 33.324C39.4028 33.324 38.3948 33.276 37.9148 33.24Z" stroke="#FF9042" stroke-width="2" stroke-linejoin="round" mask="url(#path-5-outside-1_72_3104)"/>
<path d="M6.412 42.16H4.42C4.456 42.388 4.504 43.084 4.504 43.336C4.504 43.912 4.504 45.148 4.504 46.504C4.504 48.028 4.576 49.696 4.576 50.284C4.576 50.704 4.408 50.752 4.228 50.752C4 50.752 3.592 50.512 3.592 50.224C3.592 49.756 4.276 49.192 5.296 48.808C6.184 48.472 7.288 48.256 8.272 48.256C9.268 48.256 9.868 48.688 9.868 49.396C9.868 50.128 9.196 50.572 8.272 50.728C7.876 50.8 7.348 50.812 6.772 50.812L7.432 52.696C7.96 52.648 8.5 52.6 9.064 52.48C11.116 51.964 11.764 50.812 11.764 49.408C11.764 47.632 10.192 46.66 8.296 46.66C7.408 46.66 6.184 46.84 5.116 47.2C3.34 47.8 1.804 49.084 1.804 50.308C1.804 51.688 3.508 52.744 4.804 52.744C5.668 52.744 6.268 52.324 6.268 50.632C6.268 49.972 6.184 47.776 6.184 46.444C6.184 45.388 6.22 44.404 6.28 43.324C6.304 43.012 6.364 42.388 6.412 42.16ZM9.652 43.444L8.872 44.86C9.604 45.196 11.296 46.132 11.86 46.576L12.724 45.1C12.052 44.656 10.612 43.888 9.652 43.444ZM2.2 44.02L2.236 45.772C2.644 45.82 3.124 45.832 3.988 45.832C5.032 45.832 6.94 45.64 8.356 45.328L8.32 43.528C7.06 43.888 5.212 44.104 3.928 44.104C3.496 44.104 2.932 44.104 2.2 44.02Z" stroke="#FF9042" stroke-width="2" stroke-linejoin="round" mask="url(#path-5-outside-1_72_3104)"/>
<path d="M21.016 42.232H18.916C18.952 42.412 19 42.856 19.048 43.432C19.096 44.044 19.096 46.3 19.096 47.164L20.92 47.692C20.908 46.732 20.884 44.212 20.92 43.42C20.932 43.204 20.98 42.46 21.016 42.232ZM13.996 43.624L14.044 45.364C15.856 45.28 18.136 45.184 20.38 45.184C22.156 45.184 23.452 45.22 24.244 45.256L24.268 43.54C23.548 43.528 21.532 43.552 20.44 43.552C19.132 43.552 15.88 43.636 13.996 43.624ZM20.608 47.212L19.228 46.924C19.72 48.424 19.216 48.832 18.748 48.832C18.364 48.832 17.98 48.532 17.98 48.1C17.98 47.548 18.376 47.32 18.748 47.32C19.216 47.32 19.576 47.644 19.576 48.256C19.576 50.428 17.788 51.088 15.832 51.484L17.38 53.032C20.38 52.216 21.376 50.128 21.376 48.592C21.376 47.044 20.476 45.796 18.796 45.796C17.404 45.796 16.24 46.684 16.24 48.136C16.24 49.684 17.488 50.44 18.364 50.44C19.912 50.44 20.608 49.372 20.608 47.212Z" stroke="#FF9042" stroke-width="2" stroke-linejoin="round" mask="url(#path-5-outside-1_72_3104)"/>
<path d="M33.016 42.232H30.916C30.952 42.412 31 42.856 31.048 43.432C31.096 44.044 31.096 46.3 31.096 47.164L32.92 47.692C32.908 46.732 32.884 44.212 32.92 43.42C32.932 43.204 32.98 42.46 33.016 42.232ZM25.996 43.624L26.044 45.364C27.856 45.28 30.136 45.184 32.38 45.184C34.156 45.184 35.452 45.22 36.244 45.256L36.268 43.54C35.548 43.528 33.532 43.552 32.44 43.552C31.132 43.552 27.88 43.636 25.996 43.624ZM32.608 47.212L31.228 46.924C31.72 48.424 31.216 48.832 30.748 48.832C30.364 48.832 29.98 48.532 29.98 48.1C29.98 47.548 30.376 47.32 30.748 47.32C31.216 47.32 31.576 47.644 31.576 48.256C31.576 50.428 29.788 51.088 27.832 51.484L29.38 53.032C32.38 52.216 33.376 50.128 33.376 48.592C33.376 47.044 32.476 45.796 30.796 45.796C29.404 45.796 28.24 46.684 28.24 48.136C28.24 49.684 29.488 50.44 30.364 50.44C31.912 50.44 32.608 49.372 32.608 47.212Z" stroke="#FF9042" stroke-width="2" stroke-linejoin="round" mask="url(#path-5-outside-1_72_3104)"/>
<path d="M45.592 42.52L43.576 42.328C43.588 42.616 43.552 43.192 43.48 43.6C43.264 44.92 42.628 47.128 41.632 48.568C40.996 49.504 40.444 50.128 39.904 50.128C39.544 50.128 39.352 49.816 39.352 49.348C39.352 48.412 39.856 47.296 40.744 46.672C41.524 46.108 42.448 45.616 43.756 45.616C45.364 45.616 46.396 46.648 46.396 48.208C46.396 49.504 45.556 50.872 42.844 51.1L43.96 52.792C46.42 52.396 48.292 50.932 48.292 48.304C48.292 45.724 46.48 43.996 43.936 43.996C42.616 43.996 41.392 44.296 40.06 45.136C38.572 46.072 37.648 47.848 37.648 49.504C37.648 51.136 38.644 52.024 39.688 52.024C40.792 52.024 41.5 51.568 42.712 50.104C43.984 48.58 44.728 46.084 45.268 43.888C45.352 43.552 45.484 42.868 45.592 42.52ZM40.444 42.832L38.536 43.432C38.788 43.936 38.932 44.308 39.076 44.764C39.688 46.696 40.408 48.652 41.224 49.804C41.572 50.32 41.884 50.692 42.352 51.22L43.828 50.056C43.276 49.528 42.712 48.796 42.304 48.184C41.728 47.296 41.104 45.472 40.708 44.032C40.612 43.672 40.516 43.276 40.444 42.832Z" stroke="#FF9042" stroke-width="2" stroke-linejoin="round" mask="url(#path-5-outside-1_72_3104)"/>
</svg>
