<svg width="25" height="25" viewBox="0 0 25 25" fill="none" xmlns="http://www.w3.org/2000/svg"><g clip-path="url(#clip0_59_442)"><path d="M18.3469 16.1625C19.8598 14.098 20.5375 11.5383 20.2442 8.99559C19.951 6.45287 18.7084 4.11463 16.7652 2.44868C14.822 0.782732 12.3215 -0.0880768 9.76379 0.0104749C7.20611 0.109027 4.77996 1.16967 2.97072 2.98021C1.16147 4.79075 0.102563 7.21766 0.00584114 9.77541C-0.0908805 12.3332 0.781717 14.8331 2.44906 16.7751C4.1164 18.7171 6.45552 19.958 8.99845 20.2494C11.5414 20.5408 14.1006 19.8614 16.164 18.3469H16.1625C16.2094 18.4094 16.2594 18.4688 16.3156 18.5266L22.3312 24.5422C22.6242 24.8354 23.0217 25.0002 23.4362 25.0004C23.8506 25.0005 24.2482 24.836 24.5414 24.543C24.8346 24.25 24.9994 23.8526 24.9995 23.4381C24.9997 23.0236 24.8352 22.626 24.5422 22.3329L18.5265 16.3172C18.4707 16.2607 18.4106 16.21 18.3469 16.1625ZM18.75 10.1563C18.75 11.2848 18.5277 12.4023 18.0958 13.445C17.6639 14.4876 17.0309 15.435 16.2329 16.233C15.4349 17.031 14.4876 17.664 13.4449 18.0959C12.4023 18.5278 11.2848 18.75 10.1562 18.75C9.02769 18.75 7.91019 18.5278 6.86755 18.0959C5.82491 17.664 4.87754 17.031 4.07954 16.233C3.28153 15.435 2.64852 14.4876 2.21664 13.445C1.78477 12.4023 1.56248 11.2848 1.56248 10.1563C1.56248 7.87709 2.46789 5.69123 4.07954 4.07959C5.69118 2.46795 7.87703 1.56254 10.1562 1.56254C12.4354 1.56254 14.6213 2.46795 16.2329 4.07959C17.8446 5.69123 18.75 7.87709 18.75 10.1563Z" fill="white"/></g><defs><clipPath id="clip0_59_442"><rect width="25" height="25" fill="white"/></clipPath></defs></svg>