<svg width="15" height="15" viewBox="0 0 15 15" fill="none" xmlns="http://www.w3.org/2000/svg">
<path d="M7.08333 13.1667C10.2 13.1667 12.75 10.6167 12.75 7.50008C12.75 4.38341 10.2 1.83341 7.08333 1.83341C3.96667 1.83341 1.41667 4.38341 1.41667 7.50008C1.41667 10.6167 3.96667 13.1667 7.08333 13.1667ZM7.08333 0.416748C10.9792 0.416748 14.1667 3.60425 14.1667 7.50008C14.1667 11.3959 10.9792 14.5834 7.08333 14.5834C3.1875 14.5834 0 11.3959 0 7.50008C0 3.60425 3.1875 0.416748 7.08333 0.416748ZM10.625 8.84591L10.1292 9.76675L6.375 7.71258V3.95841H7.4375V7.07508L10.625 8.84591Z" fill="#E85B2A"/>
</svg>
